<svg width="1200" height="427" viewBox="0 0 1200 427" fill="none" xmlns="http://www.w3.org/2000/svg">
<g opacity="0.6">
<mask id="mask0_1_377" style="mask-type:luminance" maskUnits="userSpaceOnUse" x="-1134" y="0" width="3512" height="561">
<path d="M2378 0H-1134V561H2378V0Z" fill="white"/>
</mask>
<g mask="url(#mask0_1_377)">
<g filter="url(#filter0_f_1_377)">
<path d="M1703 325.418C1632.16 325.418 984.817 214.939 551.191 214.939C117.565 214.939 -524.185 379 -594 379C-594 324.112 117.565 105 551.191 105C984.817 105 1703 270.53 1703 325.418Z" fill="white" fill-opacity="0.25"/>
</g>
<path d="M2980 1924.5C2980 2925.52 1924.73 3737 623 3737C-678.735 3737 -1734 2925.52 -1734 1924.5C-1734 923.483 -678.735 112 623 112C1924.73 112 2980 923.483 2980 1924.5Z" fill="url(#paint0_linear_1_377)"/>
<path d="M2979 1925C2979 2424.97 2715.4 2877.7 2289.05 3205.46C1862.73 3533.24 1273.68 3736 623 3736C-27.6828 3736 -616.722 3533.24 -1043.06 3205.46C-1469.4 2877.7 -1733 2424.97 -1733 1925C-1733 1425.03 -1469.4 972.302 -1043.06 644.534C-616.722 316.764 -27.6828 114 623 114C1273.68 114 1862.73 316.764 2289.05 644.534C2715.4 972.302 2979 1425.03 2979 1925Z" stroke="url(#paint1_linear_1_377)" stroke-opacity="0.75"/>
</g>
</g>
<defs>
<filter id="filter0_f_1_377" x="-619" y="80" width="2347" height="324" filterUnits="userSpaceOnUse" color-interpolation-filters="sRGB">
<feFlood flood-opacity="0" result="BackgroundImageFix"/>
<feBlend mode="normal" in="SourceGraphic" in2="BackgroundImageFix" result="shape"/>
<feGaussianBlur stdDeviation="12.5" result="effect1_foregroundBlur_1_377"/>
</filter>
<linearGradient id="paint0_linear_1_377" x1="623" y1="112" x2="623" y2="846.014" gradientUnits="userSpaceOnUse">
<stop stop-color="#181818"/>
<stop offset="0.286458" stop-color="#181818"/>
<stop offset="0.9375" stop-color="#121212" stop-opacity="0"/>
</linearGradient>
<linearGradient id="paint1_linear_1_377" x1="623" y1="112.78" x2="621.78" y2="822.546" gradientUnits="userSpaceOnUse">
<stop stop-color="white" stop-opacity="0.51"/>
<stop offset="0.447025" stop-color="white" stop-opacity="0"/>
</linearGradient>
</defs>
</svg>
