<svg width="996" height="417" viewBox="0 0 996 417" fill="none" xmlns="http://www.w3.org/2000/svg">
<g clip-path="url(#clip0_1_355)">
<g clip-path="url(#clip1_1_355)">
<g clip-path="url(#clip2_1_355)">
<mask id="mask0_1_355" style="mask-type:luminance" maskUnits="userSpaceOnUse" x="0" y="0" width="1536" height="471">
<path d="M0 471H1536V0H0V471Z" fill="white"/>
</mask>
<g mask="url(#mask0_1_355)">
<g opacity="0.2" filter="url(#filter0_f_1_355)">
<path d="M-470.469 1084L-507 1050.88L133.89 469.857L581 84L170.421 502.976L-470.469 1084Z" fill="url(#paint0_linear_1_355)"/>
</g>
<g opacity="0.32" filter="url(#filter1_f_1_355)">
<path d="M-165.469 1070L-202 1036.88L438.89 455.857L886 69.9999L475.421 488.976L-165.469 1070Z" fill="url(#paint1_linear_1_355)"/>
</g>
<g opacity="0.32" filter="url(#filter2_f_1_355)">
<path d="M-48.4692 1212L-85 1178.88L555.891 597.857L1003 212L592.422 630.976L-48.4692 1212Z" fill="url(#paint2_linear_1_355)"/>
</g>
</g>
</g>
</g>
</g>
<defs>
<filter id="filter0_f_1_355" x="-615.803" y="-24.8031" width="1305.61" height="1217.61" filterUnits="userSpaceOnUse" color-interpolation-filters="sRGB">
<feFlood flood-opacity="0" result="BackgroundImageFix"/>
<feBlend mode="normal" in="SourceGraphic" in2="BackgroundImageFix" result="shape"/>
<feGaussianBlur stdDeviation="54.4015" result="effect1_foregroundBlur_1_355"/>
</filter>
<filter id="filter1_f_1_355" x="-310.803" y="-38.8031" width="1305.61" height="1217.61" filterUnits="userSpaceOnUse" color-interpolation-filters="sRGB">
<feFlood flood-opacity="0" result="BackgroundImageFix"/>
<feBlend mode="normal" in="SourceGraphic" in2="BackgroundImageFix" result="shape"/>
<feGaussianBlur stdDeviation="54.4015" result="effect1_foregroundBlur_1_355"/>
</filter>
<filter id="filter2_f_1_355" x="-193.803" y="103.197" width="1305.61" height="1217.61" filterUnits="userSpaceOnUse" color-interpolation-filters="sRGB">
<feFlood flood-opacity="0" result="BackgroundImageFix"/>
<feBlend mode="normal" in="SourceGraphic" in2="BackgroundImageFix" result="shape"/>
<feGaussianBlur stdDeviation="54.4015" result="effect1_foregroundBlur_1_355"/>
</filter>
<linearGradient id="paint0_linear_1_355" x1="-488.734" y1="1067.44" x2="89.5069" y2="429.62" gradientUnits="userSpaceOnUse">
<stop stop-color="white"/>
<stop offset="1" stop-color="#D3D8DF"/>
</linearGradient>
<linearGradient id="paint1_linear_1_355" x1="-183.734" y1="1053.44" x2="394.507" y2="415.62" gradientUnits="userSpaceOnUse">
<stop stop-color="white"/>
<stop offset="1" stop-color="#D3D8DF"/>
</linearGradient>
<linearGradient id="paint2_linear_1_355" x1="-66.7346" y1="1195.44" x2="511.507" y2="557.619" gradientUnits="userSpaceOnUse">
<stop stop-color="white"/>
<stop offset="1" stop-color="#D3D8DF"/>
</linearGradient>
<clipPath id="clip0_1_355">
<rect width="1536" height="471" fill="white" transform="matrix(1 0 0 -1 0 471)"/>
</clipPath>
<clipPath id="clip1_1_355">
<rect width="1536" height="471" fill="white" transform="matrix(1 0 0 -1 0 471)"/>
</clipPath>
<clipPath id="clip2_1_355">
<rect width="1536" height="471" fill="white" transform="matrix(1 0 0 -1 0 471)"/>
</clipPath>
</defs>
</svg>
