<svg width="20" height="20" viewBox="0 0 20 20" fill="none" xmlns="http://www.w3.org/2000/svg">
<path d="M0.707898 8.57998C2.34014 12.1366 5.24042 14.9555 8.84084 16.4847L9.41897 16.7425C10.0592 17.0278 10.7795 17.0778 11.4529 16.8837C12.1264 16.6896 12.7098 16.264 13.1003 15.6817L13.8561 14.5553C13.9744 14.3787 14.0223 14.1642 13.9903 13.9539C13.9584 13.7437 13.8489 13.5531 13.6835 13.4197L11.1228 11.3524C11.0336 11.2805 10.9308 11.2273 10.8205 11.1961C10.7103 11.1649 10.5949 11.1563 10.4813 11.1709C10.3677 11.1854 10.2581 11.2228 10.1593 11.2807C10.0605 11.3387 9.97435 11.416 9.90613 11.5081L9.11375 12.5775C7.07976 11.5723 5.43337 9.92461 4.42919 7.88921L5.49703 7.09635C5.58906 7.02809 5.66636 6.94192 5.72427 6.84302C5.78219 6.74413 5.81954 6.63454 5.83407 6.52084C5.8486 6.40714 5.84002 6.29167 5.80884 6.18137C5.77765 6.07108 5.72452 5.96822 5.65262 5.87899L3.58665 3.31666C3.45325 3.15115 3.26275 3.04163 3.05268 3.00967C2.8426 2.97771 2.62818 3.02562 2.45164 3.14396L1.31834 3.90449C0.732894 4.29733 0.305833 4.88537 0.113232 5.56385C-0.0793683 6.24234 -0.0250014 6.9672 0.266648 7.60932L0.707898 8.57998Z" fill="#D1D1D2"/>
</svg>
