<svg width="1200" height="862" viewBox="0 0 1200 862" fill="none" xmlns="http://www.w3.org/2000/svg">
<path d="M147.949 379.731C148.15 379.283 147.717 378.849 147.27 379.051C147.173 379.096 147.098 379.171 147.053 379.268C146.844 379.717 147.285 380.151 147.732 379.949C147.829 379.904 147.904 379.829 147.949 379.731Z" fill="white" fill-opacity="0.1"/>
<path d="M480.949 408.731C481.151 408.283 480.717 407.849 480.268 408.051C480.171 408.096 480.096 408.171 480.051 408.268C479.849 408.717 480.283 409.151 480.732 408.949C480.829 408.904 480.904 408.829 480.949 408.731Z" fill="white" fill-opacity="0.1"/>
<path d="M409.949 360.732C410.151 360.283 409.718 359.849 409.27 360.051C409.173 360.096 409.098 360.171 409.054 360.268C408.844 360.717 409.285 361.151 409.733 360.949C409.83 360.904 409.904 360.829 409.949 360.732Z" fill="white" fill-opacity="0.1"/>
<path d="M311.947 125.732C312.155 125.283 311.715 124.849 311.267 125.051C311.17 125.096 311.096 125.17 311.051 125.268C310.849 125.717 311.282 126.151 311.73 125.949C311.827 125.904 311.902 125.829 311.947 125.732Z" fill="white" fill-opacity="0.1"/>
<path d="M371.947 112.733C372.156 112.285 371.715 111.845 371.268 112.054C371.171 112.098 371.096 112.173 371.051 112.27C370.85 112.718 371.282 113.151 371.73 112.949C371.827 112.904 371.902 112.83 371.947 112.733Z" fill="white" fill-opacity="0.1"/>
<path d="M1073.95 7.732C1074.15 7.28297 1073.72 6.84891 1073.27 7.05097C1073.17 7.09587 1073.1 7.17071 1073.05 7.268C1072.85 7.71703 1073.28 8.15109 1073.73 7.94903C1073.83 7.90413 1073.9 7.82929 1073.95 7.732Z" fill="white" fill-opacity="0.8"/>
<path d="M763.949 429.732C764.151 429.283 763.717 428.849 763.268 429.051C763.171 429.096 763.096 429.171 763.051 429.268C762.849 429.717 763.283 430.151 763.732 429.949C763.829 429.904 763.904 429.829 763.949 429.732Z" fill="white" fill-opacity="0.8"/>
<path d="M845.947 458.732C846.155 458.283 845.715 457.849 845.267 458.051C845.17 458.096 845.096 458.171 845.051 458.268C844.849 458.717 845.282 459.151 845.73 458.949C845.827 458.904 845.902 458.829 845.947 458.732Z" fill="white" fill-opacity="0.1"/>
<path d="M1016.95 342.732C1017.16 342.283 1016.72 341.849 1016.27 342.051C1016.17 342.096 1016.1 342.171 1016.05 342.268C1015.85 342.717 1016.28 343.151 1016.73 342.949C1016.83 342.904 1016.9 342.829 1016.95 342.732Z" fill="white" fill-opacity="0.1"/>
<path d="M1055.95 157.732C1056.16 157.283 1055.72 156.849 1055.27 157.051C1055.17 157.096 1055.1 157.17 1055.05 157.268C1054.85 157.717 1055.28 158.151 1055.73 157.949C1055.83 157.904 1055.9 157.829 1055.95 157.732Z" fill="white" fill-opacity="0.1"/>
<path d="M1015.95 17.732C1016.15 17.2829 1015.72 16.849 1015.27 17.0509C1015.17 17.0958 1015.1 17.1707 1015.05 17.268C1014.84 17.717 1015.28 18.1511 1015.73 17.949C1015.83 17.9041 1015.9 17.8292 1015.95 17.732Z" fill="white" fill-opacity="0.1"/>
<path d="M1085.95 51.732C1086.15 51.283 1085.72 50.8489 1085.27 51.051C1085.17 51.0959 1085.1 51.1707 1085.05 51.268C1084.85 51.717 1085.28 52.1511 1085.73 51.949C1085.83 51.9041 1085.9 51.8293 1085.95 51.732Z" fill="white" fill-opacity="0.1"/>
<path d="M1009.95 79.732C1010.16 79.283 1009.72 78.8489 1009.27 79.051C1009.17 79.0959 1009.1 79.1707 1009.05 79.268C1008.85 79.717 1009.28 80.1511 1009.73 79.949C1009.83 79.9041 1009.9 79.8293 1009.95 79.732Z" fill="white" fill-opacity="0.1"/>
<path d="M1010.95 200.732C1011.16 200.283 1010.72 199.849 1010.27 200.051C1010.17 200.096 1010.1 200.171 1010.05 200.268C1009.85 200.717 1010.28 201.151 1010.73 200.949C1010.83 200.904 1010.9 200.829 1010.95 200.732Z" fill="white" fill-opacity="0.1"/>
<path d="M1157.95 220.732C1158.15 220.283 1157.72 219.849 1157.27 220.051C1157.17 220.096 1157.1 220.171 1157.05 220.268C1156.84 220.717 1157.28 221.151 1157.73 220.949C1157.83 220.904 1157.9 220.829 1157.95 220.732Z" fill="white" fill-opacity="0.1"/>
<path d="M379.949 230.732C380.151 230.283 379.718 229.849 379.27 230.051C379.173 230.096 379.098 230.171 379.054 230.268C378.844 230.717 379.285 231.151 379.733 230.949C379.83 230.904 379.904 230.829 379.949 230.732Z" fill="white" fill-opacity="0.1"/>
<path d="M613.949 399.732C614.151 399.283 613.717 398.849 613.268 399.051C613.171 399.096 613.096 399.171 613.051 399.268C612.849 399.717 613.283 400.151 613.732 399.949C613.829 399.904 613.904 399.829 613.949 399.732Z" fill="white" fill-opacity="0.1"/>
<path d="M488.946 355.732C489.155 355.283 488.715 354.849 488.268 355.051C488.171 355.096 488.096 355.171 488.051 355.269C487.85 355.717 488.283 356.151 488.729 355.949C488.826 355.904 488.901 355.829 488.946 355.732Z" fill="white" fill-opacity="0.1"/>
<path d="M252.949 423.732C253.151 423.283 252.718 422.849 252.27 423.051C252.173 423.096 252.098 423.171 252.054 423.268C251.844 423.717 252.285 424.151 252.733 423.949C252.83 423.904 252.904 423.83 252.949 423.732Z" fill="white" fill-opacity="0.1"/>
<path d="M810.946 9.73199C811.156 9.28296 810.715 8.84891 810.267 9.05097C810.17 9.09588 810.096 9.17071 810.051 9.268C809.849 9.71703 810.282 10.1511 810.73 9.94903C810.827 9.90413 810.902 9.82928 810.946 9.73199Z" fill="white" fill-opacity="0.8"/>
<path d="M381.949 461.732C382.151 461.283 381.718 460.849 381.27 461.051C381.173 461.096 381.098 461.171 381.054 461.268C380.844 461.717 381.285 462.151 381.733 461.949C381.83 461.904 381.904 461.829 381.949 461.732Z" fill="white" fill-opacity="0.8"/>
<path d="M258.946 61.732C259.156 61.283 258.715 60.8489 258.267 61.051C258.17 61.0959 258.096 61.1707 258.051 61.268C257.849 61.717 258.282 62.1511 258.73 61.949C258.827 61.9041 258.902 61.8293 258.946 61.732Z" fill="white" fill-opacity="0.1"/>
<path d="M372.949 19.732C373.151 19.283 372.718 18.8489 372.27 19.051C372.173 19.0959 372.098 19.1707 372.054 19.268C371.844 19.717 372.285 20.1511 372.733 19.949C372.83 19.9041 372.904 19.8293 372.949 19.732Z" fill="white" fill-opacity="0.8"/>
<path d="M104.949 316.732C105.151 316.283 104.717 315.849 104.268 316.051C104.171 316.096 104.096 316.171 104.051 316.268C103.849 316.717 104.283 317.151 104.732 316.949C104.829 316.904 104.904 316.829 104.949 316.732Z" fill="white" fill-opacity="0.8"/>
<path d="M160.946 294.731C161.155 294.283 160.716 293.849 160.268 294.051C160.171 294.096 160.096 294.171 160.051 294.268C159.85 294.717 160.283 295.151 160.731 294.949C160.827 294.904 160.901 294.829 160.946 294.731Z" fill="white" fill-opacity="0.1"/>
<path d="M167.949 162.732C168.151 162.283 167.717 161.849 167.268 162.051C167.171 162.096 167.096 162.171 167.051 162.268C166.849 162.717 167.283 163.151 167.732 162.949C167.829 162.904 167.904 162.829 167.949 162.732Z" fill="white" fill-opacity="0.1"/>
<path d="M161.949 222.732C162.151 222.283 161.718 221.849 161.27 222.051C161.173 222.096 161.098 222.171 161.054 222.268C160.844 222.717 161.285 223.151 161.733 222.949C161.83 222.904 161.904 222.829 161.949 222.732Z" fill="white" fill-opacity="0.1"/>
<path d="M244.949 466.732C245.15 466.283 244.717 465.849 244.27 466.051C244.173 466.096 244.099 466.17 244.054 466.268C243.845 466.717 244.284 467.151 244.732 466.949C244.829 466.904 244.904 466.829 244.949 466.732Z" fill="white" fill-opacity="0.8"/>
<path d="M371.949 296.732C372.151 296.283 371.717 295.849 371.268 296.051C371.17 296.096 371.095 296.171 371.051 296.268C370.848 296.717 371.283 297.151 371.732 296.949C371.829 296.904 371.904 296.829 371.949 296.732Z" fill="white" fill-opacity="0.1"/>
<path d="M340.949 250.732C341.151 250.283 340.717 249.849 340.268 250.051C340.171 250.096 340.096 250.171 340.051 250.268C339.849 250.717 340.283 251.152 340.732 250.949C340.829 250.905 340.904 250.83 340.949 250.732Z" fill="white" fill-opacity="0.8"/>
<path d="M217.268 166.949C217.717 167.151 218.151 166.718 217.949 166.27C217.904 166.173 217.829 166.098 217.732 166.054C217.283 165.844 216.849 166.285 217.051 166.733C217.096 166.83 217.171 166.904 217.268 166.949Z" fill="white" fill-opacity="0.8"/>
<path d="M255.949 337.732C256.15 337.283 255.717 336.849 255.27 337.051C255.172 337.096 255.099 337.171 255.054 337.269C254.845 337.717 255.284 338.151 255.732 337.949C255.829 337.904 255.904 337.829 255.949 337.732Z" fill="white" fill-opacity="0.1"/>
<path d="M548.949 387.732C549.151 387.283 548.718 386.849 548.27 387.051C548.173 387.096 548.098 387.171 548.054 387.268C547.844 387.717 548.285 388.151 548.733 387.949C548.83 387.904 548.904 387.829 548.949 387.732Z" fill="white" fill-opacity="0.1"/>
<path d="M677.949 474.73C678.151 474.282 677.718 473.849 677.27 474.051C677.173 474.096 677.098 474.17 677.054 474.267C676.844 474.715 677.285 475.156 677.733 474.946C677.83 474.902 677.904 474.827 677.949 474.73Z" fill="white" fill-opacity="0.1"/>
<path d="M613.949 439.732C614.151 439.283 613.717 438.849 613.268 439.051C613.171 439.096 613.096 439.171 613.051 439.268C612.849 439.717 613.283 440.151 613.732 439.949C613.829 439.904 613.904 439.829 613.949 439.732Z" fill="white" fill-opacity="0.8"/>
<path d="M894.949 281.732C895.15 281.283 894.717 280.849 894.271 281.051C894.173 281.096 894.099 281.171 894.054 281.268C893.845 281.717 894.284 282.151 894.732 281.949C894.829 281.904 894.904 281.829 894.949 281.732Z" fill="white" fill-opacity="0.8"/>
<path d="M364.949 100.732C365.15 100.283 364.718 99.8489 364.27 100.051C364.173 100.096 364.098 100.171 364.053 100.268C363.844 100.717 364.285 101.151 364.732 100.949C364.829 100.904 364.904 100.829 364.949 100.732Z" fill="white" fill-opacity="0.1"/>
<path d="M961.95 122.732C962.149 122.283 961.721 121.849 961.272 122.051C961.173 122.096 961.103 122.171 961.053 122.268C960.844 122.717 961.292 123.151 961.731 122.949C961.83 122.904 961.9 122.829 961.95 122.732Z" fill="white" fill-opacity="0.1"/>
<path d="M974.949 28.7301C975.15 28.2822 974.718 27.8493 974.266 28.0509C974.175 28.0956 974.094 28.1703 974.054 28.2673C973.843 28.7151 974.286 29.1555 974.738 28.9465C974.829 28.9017 974.909 28.8271 974.949 28.7301Z" fill="white" fill-opacity="0.1"/>
<path d="M910.949 235.732C911.15 235.283 910.717 234.849 910.27 235.051C910.173 235.096 910.098 235.171 910.053 235.268C909.844 235.717 910.285 236.151 910.732 235.949C910.829 235.904 910.904 235.829 910.949 235.732Z" fill="white" fill-opacity="0.1"/>
<path d="M103.949 9.73004C104.151 9.28222 103.718 8.84931 103.27 9.05084C103.173 9.09562 103.098 9.17026 103.054 9.26729C102.845 9.71512 103.285 10.1555 103.733 9.9465C103.83 9.90172 103.904 9.82707 103.949 9.73004Z" fill="white" fill-opacity="0.1"/>
<path d="M1089.73 89.0535C1089.28 88.8445 1088.85 89.2849 1089.05 89.7327C1089.1 89.8297 1089.17 89.9044 1089.27 89.9492C1089.72 90.1507 1090.15 89.7178 1089.95 89.27C1089.9 89.1729 1089.83 89.0983 1089.73 89.0535Z" fill="white" fill-opacity="0.1"/>
<path d="M622.946 22.732C623.156 22.283 622.715 21.8489 622.267 22.051C622.17 22.0959 622.096 22.1707 622.051 22.268C621.849 22.717 622.282 23.1511 622.73 22.949C622.827 22.9041 622.902 22.8293 622.946 22.732Z" fill="white" fill-opacity="0.1"/>
<path d="M481.949 319.732C482.152 319.283 481.717 318.849 481.268 319.051C481.171 319.096 481.096 319.171 481.051 319.268C480.849 319.717 481.283 320.151 481.732 319.949C481.83 319.904 481.905 319.829 481.949 319.732Z" fill="white" fill-opacity="0.1"/>
<path d="M537.949 36.7301C538.151 36.2822 537.718 35.8493 537.27 36.0508C537.173 36.0956 537.098 36.1703 537.054 36.2673C536.844 36.7151 537.285 37.1555 537.733 36.9465C537.83 36.9017 537.905 36.8271 537.949 36.7301Z" fill="white" fill-opacity="0.1"/>
<path d="M935.946 355.732C936.156 355.283 935.715 354.849 935.267 355.051C935.17 355.096 935.096 355.171 935.051 355.268C934.849 355.717 935.282 356.151 935.73 355.949C935.827 355.904 935.902 355.829 935.946 355.732Z" fill="white" fill-opacity="0.8"/>
<path d="M146.946 53.732C147.155 53.283 146.716 52.8489 146.268 53.051C146.171 53.0959 146.096 53.1707 146.051 53.268C145.85 53.717 146.283 54.1511 146.73 53.949C146.827 53.9041 146.901 53.8293 146.946 53.732Z" fill="white" fill-opacity="0.8"/>
<path d="M14.949 65.732C15.1511 65.283 14.717 64.8489 14.268 65.051C14.1707 65.0959 14.0959 65.1707 14.051 65.268C13.8489 65.717 14.283 66.1511 14.732 65.949C14.8293 65.9041 14.9041 65.8293 14.949 65.732Z" fill="white" fill-opacity="0.1"/>
<path d="M150.949 107.732C151.151 107.283 150.717 106.849 150.268 107.051C150.171 107.096 150.096 107.171 150.051 107.268C149.849 107.717 150.283 108.151 150.732 107.949C150.83 107.904 150.904 107.829 150.949 107.732Z" fill="white" fill-opacity="0.1"/>
<path d="M430.949 36.732C431.151 36.283 430.717 35.8489 430.268 36.051C430.171 36.0959 430.096 36.1707 430.051 36.268C429.849 36.717 430.283 37.1511 430.732 36.949C430.829 36.9041 430.904 36.8293 430.949 36.732Z" fill="white" fill-opacity="0.1"/>
<path d="M453.947 485.732C454.155 485.283 453.715 484.849 453.267 485.051C453.17 485.096 453.096 485.171 453.051 485.268C452.849 485.717 453.282 486.151 453.73 485.949C453.827 485.904 453.902 485.829 453.947 485.732Z" fill="white" fill-opacity="0.1"/>
<path d="M1047.95 470.732C1048.15 470.283 1047.72 469.849 1047.27 470.051C1047.17 470.096 1047.1 470.171 1047.05 470.268C1046.85 470.717 1047.28 471.151 1047.73 470.949C1047.83 470.904 1047.9 470.829 1047.95 470.732Z" fill="white" fill-opacity="0.1"/>
<path d="M754.949 77.7319C755.151 77.2829 754.718 76.8489 754.27 77.0509C754.173 77.0958 754.098 77.1708 754.054 77.268C753.844 77.7171 754.285 78.1511 754.733 77.9491C754.83 77.9042 754.904 77.8292 754.949 77.7319Z" fill="white" fill-opacity="0.1"/>
<path d="M792.946 43.732C793.156 43.283 792.715 42.8489 792.267 43.051C792.17 43.0959 792.095 43.1707 792.051 43.268C791.849 43.7171 792.282 44.151 792.73 43.9491C792.827 43.9042 792.901 43.8293 792.946 43.732Z" fill="white" fill-opacity="0.1"/>
<path d="M182.949 264.732C183.151 264.283 182.718 263.849 182.27 264.051C182.173 264.096 182.098 264.171 182.054 264.268C181.844 264.717 182.285 265.151 182.733 264.949C182.83 264.904 182.904 264.829 182.949 264.732Z" fill="white" fill-opacity="0.1"/>
<path d="M413.949 98.732C414.151 98.283 413.717 97.8489 413.268 98.051C413.171 98.0959 413.096 98.1707 413.051 98.268C412.849 98.7171 413.283 99.1511 413.732 98.949C413.829 98.9041 413.904 98.8293 413.949 98.732Z" fill="white" fill-opacity="0.1"/>
<path d="M842.946 357.732C843.156 357.283 842.715 356.849 842.267 357.051C842.17 357.096 842.095 357.171 842.051 357.268C841.849 357.717 842.282 358.151 842.73 357.949C842.827 357.904 842.901 357.829 842.946 357.732Z" fill="white" fill-opacity="0.1"/>
<path d="M1042.95 296.732C1043.16 296.283 1042.72 295.849 1042.27 296.051C1042.17 296.096 1042.1 296.171 1042.05 296.268C1041.85 296.717 1042.28 297.151 1042.73 296.949C1042.83 296.904 1042.9 296.829 1042.95 296.732Z" fill="white" fill-opacity="0.8"/>
<path d="M1053.95 230.732C1054.15 230.283 1053.72 229.849 1053.27 230.051C1053.17 230.096 1053.1 230.171 1053.05 230.268C1052.85 230.717 1053.28 231.151 1053.73 230.949C1053.83 230.904 1053.9 230.83 1053.95 230.732Z" fill="white" fill-opacity="0.1"/>
<path d="M348.051 190.732C347.849 190.283 348.283 189.849 348.732 190.051C348.829 190.096 348.904 190.171 348.949 190.268C349.151 190.717 348.717 191.151 348.268 190.949C348.171 190.904 348.096 190.829 348.051 190.732Z" fill="white" fill-opacity="0.1"/>
<path d="M644.051 424.732C643.849 424.283 644.283 423.849 644.732 424.051C644.829 424.096 644.904 424.171 644.949 424.268C645.151 424.717 644.717 425.151 644.268 424.949C644.171 424.904 644.096 424.829 644.051 424.732Z" fill="white" fill-opacity="0.1"/>
<path d="M294.051 407.732C293.849 407.283 294.282 406.848 294.73 407.051C294.827 407.095 294.902 407.17 294.946 407.268C295.156 407.717 294.715 408.151 294.267 407.949C294.17 407.904 294.096 407.829 294.051 407.732Z" fill="white" fill-opacity="0.1"/>
<path d="M557.051 427.732C556.849 427.283 557.283 426.849 557.732 427.051C557.829 427.096 557.904 427.171 557.949 427.268C558.151 427.717 557.717 428.151 557.268 427.949C557.171 427.904 557.096 427.829 557.051 427.732Z" fill="white" fill-opacity="0.1"/>
<path d="M677.051 443.73C676.849 443.282 677.282 442.849 677.73 443.051C677.827 443.096 677.902 443.17 677.946 443.267C678.156 443.715 677.715 444.156 677.267 443.946C677.17 443.902 677.096 443.827 677.051 443.73Z" fill="white" fill-opacity="0.1"/>
<path d="M255.051 310.732C254.85 310.283 255.282 309.849 255.73 310.051C255.827 310.096 255.902 310.171 255.947 310.268C256.156 310.717 255.715 311.151 255.268 310.949C255.171 310.904 255.096 310.829 255.051 310.732Z" fill="white" fill-opacity="0.1"/>
<path d="M202.268 125.054C202.717 124.844 203.151 125.285 202.949 125.733C202.904 125.83 202.829 125.904 202.732 125.949C202.283 126.151 201.849 125.718 202.051 125.27C202.096 125.173 202.171 125.098 202.268 125.054Z" fill="white" fill-opacity="0.1"/>
<path d="M119.051 296.732C118.849 296.283 119.282 295.849 119.73 296.051C119.827 296.096 119.902 296.17 119.946 296.268C120.156 296.717 119.715 297.151 119.267 296.949C119.17 296.904 119.096 296.829 119.051 296.732Z" fill="white" fill-opacity="0.1"/>
<path d="M866.053 35.732C865.844 35.283 866.285 34.8489 866.732 35.051C866.829 35.0959 866.904 35.1707 866.949 35.268C867.15 35.717 866.717 36.1511 866.27 35.949C866.173 35.9041 866.098 35.8293 866.053 35.732Z" fill="white" fill-opacity="0.8"/>
<path d="M973.05 342.733C972.85 342.285 973.29 341.844 973.73 342.054C973.83 342.098 973.91 342.173 973.95 342.27C974.15 342.718 973.72 343.151 973.27 342.949C973.17 342.904 973.1 342.83 973.05 342.733Z" fill="white" fill-opacity="0.1"/>
<path d="M1007.05 393.732C1006.84 393.283 1007.28 392.849 1007.73 393.051C1007.83 393.096 1007.9 393.17 1007.95 393.268C1008.15 393.717 1007.72 394.151 1007.27 393.949C1007.17 393.904 1007.1 393.829 1007.05 393.732Z" fill="white" fill-opacity="0.8"/>
<path d="M1091.05 143.732C1090.85 143.283 1091.28 142.849 1091.73 143.051C1091.83 143.096 1091.9 143.171 1091.95 143.268C1092.16 143.717 1091.72 144.151 1091.27 143.949C1091.17 143.904 1091.1 143.829 1091.05 143.732Z" fill="white" fill-opacity="0.1"/>
<path d="M1069.05 111.732C1068.84 111.283 1069.29 110.849 1069.73 111.051C1069.83 111.096 1069.91 111.171 1069.95 111.268C1070.15 111.717 1069.72 112.151 1069.27 111.949C1069.17 111.904 1069.09 111.829 1069.05 111.732Z" fill="white" fill-opacity="0.8"/>
<path d="M1005.05 265.732C1004.84 265.283 1005.28 264.849 1005.73 265.051C1005.83 265.096 1005.9 265.171 1005.95 265.268C1006.15 265.717 1005.72 266.151 1005.27 265.949C1005.17 265.904 1005.1 265.829 1005.05 265.732Z" fill="white" fill-opacity="0.1"/>
<path d="M720.051 0.732003C719.849 0.282973 720.282 -0.151092 720.73 0.0509716C720.827 0.0958746 720.902 0.170708 720.946 0.267997C721.156 0.717028 720.715 1.15109 720.267 0.949029C720.17 0.904126 720.096 0.829293 720.051 0.732003Z" fill="white" fill-opacity="0.1"/>
<path d="M698.051 12.732C697.849 12.283 698.283 11.8489 698.732 12.051C698.83 12.0959 698.904 12.1708 698.949 12.268C699.151 12.7171 698.717 13.151 698.268 12.9491C698.171 12.9042 698.096 12.8293 698.051 12.732Z" fill="white" fill-opacity="0.1"/>
<path d="M187.051 387.732C186.849 387.283 187.283 386.848 187.732 387.051C187.83 387.095 187.905 387.17 187.949 387.268C188.151 387.717 187.717 388.151 187.268 387.949C187.171 387.904 187.096 387.829 187.051 387.732Z" fill="white" fill-opacity="0.1"/>
<path d="M74.0535 247.733C73.8445 247.285 74.2849 246.844 74.7327 247.054C74.8297 247.098 74.9044 247.173 74.9492 247.27C75.1507 247.718 74.7178 248.151 74.27 247.949C74.1729 247.904 74.0983 247.83 74.0535 247.733Z" fill="white" fill-opacity="0.1"/>
<path d="M106.053 224.732C105.845 224.283 106.285 223.849 106.732 224.051C106.829 224.096 106.904 224.171 106.949 224.268C107.15 224.717 106.717 225.151 106.27 224.949C106.173 224.904 106.098 224.829 106.053 224.732Z" fill="white" fill-opacity="0.8"/>
<path d="M269.051 249.732C268.85 249.283 269.283 248.849 269.73 249.051C269.827 249.096 269.901 249.171 269.946 249.268C270.155 249.717 269.715 250.151 269.268 249.949C269.171 249.904 269.096 249.829 269.051 249.732Z" fill="white" fill-opacity="0.1"/>
<path d="M35.0508 127.732C34.8493 127.283 35.2822 126.849 35.7301 127.051C35.8271 127.096 35.9017 127.171 35.9465 127.268C36.1555 127.717 35.7151 128.151 35.2673 127.949C35.1703 127.904 35.0956 127.829 35.0508 127.732Z" fill="white" fill-opacity="0.1"/>
<path d="M1110.05 193.732C1109.85 193.283 1110.28 192.849 1110.73 193.051C1110.83 193.096 1110.9 193.171 1110.95 193.268C1111.15 193.717 1110.71 194.151 1110.27 193.949C1110.17 193.904 1110.09 193.829 1110.05 193.732Z" fill="white" fill-opacity="0.1"/>
<path d="M1151.73 154.949C1151.28 155.152 1150.85 154.717 1151.05 154.268C1151.1 154.171 1151.17 154.096 1151.27 154.051C1151.72 153.849 1152.15 154.283 1151.95 154.732C1151.9 154.83 1151.83 154.905 1151.73 154.949Z" fill="white" fill-opacity="0.8"/>
<path d="M1128.73 117.946C1128.28 118.156 1127.85 117.715 1128.05 117.267C1128.1 117.17 1128.17 117.096 1128.27 117.051C1128.72 116.849 1129.15 117.282 1128.95 117.73C1128.9 117.827 1128.83 117.902 1128.73 117.946Z" fill="white" fill-opacity="0.1"/>
<path d="M765.051 21.732C764.849 21.2829 765.283 20.849 765.732 21.0509C765.829 21.0959 765.904 21.1707 765.949 21.268C766.151 21.717 765.717 22.1511 765.268 21.949C765.171 21.9041 765.096 21.8293 765.051 21.732Z" fill="white" fill-opacity="0.1"/>
<path d="M208.051 232.732C207.85 232.283 208.283 231.849 208.731 232.051C208.827 232.096 208.901 232.17 208.946 232.268C209.155 232.717 208.715 233.151 208.268 232.949C208.171 232.904 208.096 232.829 208.051 232.732Z" fill="white" fill-opacity="0.1"/>
<path d="M483.051 13.732C482.849 13.283 483.283 12.8489 483.732 13.051C483.829 13.0959 483.904 13.1707 483.949 13.268C484.151 13.717 483.717 14.1511 483.268 13.949C483.171 13.9041 483.096 13.8293 483.051 13.732Z" fill="white" fill-opacity="0.1"/>
<path d="M434.051 79.732C433.85 79.2829 434.283 78.849 434.731 79.0509C434.827 79.0958 434.901 79.1707 434.946 79.268C435.155 79.717 434.715 80.1511 434.268 79.949C434.171 79.9041 434.096 79.8293 434.051 79.732Z" fill="white" fill-opacity="0.1"/>
<path d="M521.051 79.732C520.849 79.2829 521.283 78.8489 521.732 79.0509C521.829 79.0958 521.904 79.1708 521.949 79.268C522.151 79.7171 521.717 80.1511 521.268 79.9491C521.17 79.9042 521.096 79.8292 521.051 79.732Z" fill="white" fill-opacity="0.1"/>
<path d="M369.051 412.732C368.849 412.283 369.283 411.849 369.732 412.051C369.829 412.096 369.904 412.171 369.949 412.268C370.151 412.717 369.717 413.151 369.268 412.949C369.171 412.904 369.096 412.829 369.051 412.732Z" fill="white" fill-opacity="0.1"/>
<path d="M1001.05 418.732C1000.84 418.283 1001.29 417.849 1001.74 418.051C1001.83 418.096 1001.91 418.171 1001.95 418.268C1002.15 418.717 1001.72 419.152 1001.27 418.949C1001.17 418.905 1001.09 418.83 1001.05 418.732Z" fill="white" fill-opacity="0.8"/>
<path d="M527.051 439.732C526.849 439.283 527.283 438.849 527.732 439.051C527.829 439.096 527.904 439.171 527.949 439.268C528.151 439.717 527.717 440.151 527.268 439.949C527.171 439.904 527.096 439.829 527.051 439.732Z" fill="white" fill-opacity="0.1"/>
<path d="M590.051 472.732C589.849 472.283 590.283 471.849 590.732 472.051C590.829 472.096 590.904 472.171 590.949 472.268C591.151 472.717 590.717 473.151 590.268 472.949C590.171 472.904 590.096 472.829 590.051 472.732Z" fill="white" fill-opacity="0.8"/>
<path d="M703.051 395.732C702.848 395.283 703.283 394.849 703.732 395.051C703.829 395.096 703.904 395.17 703.949 395.268C704.151 395.717 703.717 396.151 703.268 395.949C703.17 395.904 703.095 395.829 703.051 395.732Z" fill="white" fill-opacity="0.8"/>
<path d="M479.051 445.732C478.849 445.283 479.283 444.849 479.732 445.051C479.829 445.096 479.904 445.171 479.949 445.268C480.151 445.717 479.717 446.151 479.268 445.949C479.171 445.904 479.096 445.829 479.051 445.732Z" fill="white" fill-opacity="0.8"/>
<path d="M517.051 485.732C516.849 485.283 517.282 484.849 517.73 485.051C517.827 485.096 517.902 485.171 517.946 485.268C518.156 485.717 517.715 486.151 517.267 485.949C517.17 485.904 517.096 485.829 517.051 485.732Z" fill="white" fill-opacity="0.1"/>
<path d="M263.051 96.732C262.849 96.283 263.282 95.8489 263.73 96.051C263.827 96.0959 263.902 96.1707 263.946 96.268C264.156 96.717 263.715 97.1511 263.267 96.949C263.17 96.9041 263.096 96.8293 263.051 96.732Z" fill="white" fill-opacity="0.1"/>
<path d="M809.051 402.732C808.849 402.283 809.282 401.849 809.73 402.051C809.827 402.096 809.902 402.171 809.946 402.268C810.156 402.717 809.715 403.151 809.267 402.949C809.17 402.905 809.095 402.83 809.051 402.732Z" fill="white" fill-opacity="0.1"/>
<path d="M777.054 387.732C776.844 387.283 777.285 386.849 777.733 387.051C777.83 387.096 777.904 387.171 777.949 387.268C778.151 387.717 777.718 388.151 777.27 387.949C777.173 387.904 777.098 387.83 777.054 387.732Z" fill="white" fill-opacity="0.1"/>
<path d="M939.054 182.733C938.844 182.285 939.285 181.844 939.733 182.054C939.83 182.098 939.904 182.173 939.949 182.27C940.151 182.718 939.718 183.151 939.27 182.949C939.173 182.904 939.098 182.83 939.054 182.733Z" fill="white" fill-opacity="0.1"/>
<path d="M876.051 65.732C875.849 65.283 876.283 64.8489 876.732 65.051C876.829 65.0959 876.904 65.1707 876.949 65.268C877.151 65.717 876.717 66.1511 876.268 65.949C876.17 65.9041 876.096 65.8293 876.051 65.732Z" fill="white" fill-opacity="0.8"/>
<path d="M827.051 81.732C826.849 81.283 827.282 80.8489 827.73 81.051C827.827 81.0959 827.902 81.1707 827.946 81.268C828.156 81.717 827.715 82.1511 827.267 81.949C827.17 81.9041 827.096 81.8293 827.051 81.732Z" fill="white" fill-opacity="0.1"/>
<path d="M893.051 401.732C892.849 401.283 893.283 400.849 893.732 401.051C893.829 401.096 893.904 401.171 893.949 401.268C894.151 401.717 893.717 402.151 893.268 401.949C893.17 401.904 893.096 401.829 893.051 401.732Z" fill="white" fill-opacity="0.1"/>
<path d="M881.054 106.732C880.844 106.283 881.285 105.849 881.733 106.051C881.83 106.096 881.904 106.171 881.949 106.268C882.151 106.717 881.718 107.151 881.27 106.949C881.173 106.904 881.098 106.829 881.054 106.732Z" fill="white" fill-opacity="0.1"/>
<path d="M933.051 61.7301C932.849 61.2822 933.282 60.8493 933.73 61.0508C933.827 61.0956 933.902 61.1703 933.946 61.2673C934.156 61.7151 933.715 62.1555 933.267 61.9465C933.17 61.9017 933.096 61.8271 933.051 61.7301Z" fill="white" fill-opacity="0.1"/>
<path d="M977.05 277.732C976.851 277.283 977.279 276.849 977.727 277.051C977.827 277.096 977.896 277.171 977.946 277.268C978.155 277.717 977.717 278.151 977.269 277.949C977.17 277.904 977.1 277.829 977.05 277.732Z" fill="white" fill-opacity="0.1"/>
<path d="M953.05 222.732C952.851 222.283 953.28 221.849 953.73 222.051C953.83 222.096 953.9 222.171 953.95 222.268C954.149 222.717 953.72 223.151 953.27 222.949C953.17 222.904 953.09 222.829 953.05 222.732Z" fill="white" fill-opacity="0.1"/>
<path d="M1058.05 353.732C1057.84 353.283 1058.28 352.849 1058.73 353.051C1058.83 353.096 1058.9 353.171 1058.95 353.268C1059.15 353.717 1058.72 354.151 1058.27 353.949C1058.17 353.904 1058.1 353.829 1058.05 353.732Z" fill="white" fill-opacity="0.1"/>
<path d="M932.051 308.732C931.849 308.283 932.282 307.849 932.73 308.051C932.827 308.096 932.902 308.171 932.946 308.268C933.156 308.717 932.715 309.151 932.267 308.949C932.17 308.904 932.096 308.829 932.051 308.732Z" fill="white" fill-opacity="0.1"/>
<path d="M1086.05 317.732C1085.85 317.283 1086.28 316.849 1086.73 317.051C1086.82 317.096 1086.91 317.17 1086.95 317.268C1087.16 317.717 1086.71 318.151 1086.26 317.949C1086.17 317.904 1086.09 317.829 1086.05 317.732Z" fill="white" fill-opacity="0.1"/>
<path d="M204.051 317.732C203.85 317.283 204.283 316.849 204.73 317.051C204.827 317.096 204.901 317.171 204.946 317.268C205.155 317.717 204.716 318.151 204.268 317.949C204.171 317.904 204.096 317.83 204.051 317.732Z" fill="white" fill-opacity="0.1"/>
<path d="M940.051 406.732C939.849 406.283 940.282 405.849 940.73 406.051C940.827 406.096 940.9 406.171 940.95 406.269C941.15 406.717 940.716 407.151 940.267 406.949C940.17 406.904 940.096 406.829 940.051 406.732Z" fill="white" fill-opacity="0.1"/>
<path d="M718.051 439.732C717.849 439.283 718.283 438.849 718.732 439.051C718.829 439.096 718.904 439.171 718.949 439.268C719.151 439.717 718.717 440.151 718.268 439.949C718.171 439.904 718.096 439.829 718.051 439.732Z" fill="white" fill-opacity="0.1"/>
<path d="M926.054 461.732C925.844 461.283 926.285 460.849 926.733 461.051C926.83 461.096 926.904 461.17 926.949 461.268C927.151 461.717 926.718 462.151 926.27 461.949C926.173 461.904 926.098 461.829 926.054 461.732Z" fill="white" fill-opacity="0.8"/>
<path d="M805.946 117.732C806.156 117.283 805.715 116.849 805.267 117.051C805.17 117.096 805.096 117.171 805.051 117.268C804.849 117.717 805.282 118.151 805.73 117.949C805.827 117.904 805.902 117.829 805.946 117.732Z" fill="white" fill-opacity="0.8"/>
<path d="M917.949 232.732C918.151 232.283 917.717 231.849 917.268 232.051C917.171 232.096 917.096 232.171 917.051 232.268C916.849 232.717 917.283 233.151 917.732 232.949C917.829 232.904 917.904 232.829 917.949 232.732Z" fill="white" fill-opacity="0.1"/>
<path d="M876.053 155.732C875.844 155.283 876.285 154.849 876.732 155.051C876.83 155.096 876.904 155.17 876.949 155.268C877.15 155.717 876.718 156.151 876.27 155.949C876.173 155.904 876.098 155.829 876.053 155.732Z" fill="white" fill-opacity="0.8"/>
<path d="M870.054 180.732C869.845 180.283 870.285 179.849 870.732 180.051C870.829 180.096 870.904 180.171 870.949 180.268C871.15 180.717 870.717 181.152 870.27 180.949C870.173 180.905 870.099 180.83 870.054 180.732Z" fill="white" fill-opacity="0.8"/>
<path d="M927.053 115.732C926.845 115.283 927.285 114.849 927.733 115.051C927.83 115.096 927.904 115.171 927.949 115.268C928.151 115.717 927.718 116.151 927.27 115.949C927.173 115.904 927.098 115.829 927.053 115.732Z" fill="white" fill-opacity="0.1"/>
<path d="M809.051 168.732C808.849 168.283 809.283 167.849 809.732 168.051C809.83 168.096 809.905 168.171 809.949 168.269C810.151 168.717 809.717 169.151 809.268 168.949C809.171 168.904 809.096 168.829 809.051 168.732Z" fill="white" fill-opacity="0.1"/>
<path d="M795.054 223.732C794.844 223.283 795.285 222.849 795.733 223.051C795.83 223.096 795.904 223.17 795.949 223.268C796.151 223.717 795.718 224.151 795.27 223.949C795.173 223.904 795.098 223.829 795.054 223.732Z" fill="white" fill-opacity="0.8"/>
<path d="M874.053 331.732C873.844 331.283 874.285 330.849 874.732 331.051C874.829 331.096 874.904 331.17 874.949 331.268C875.15 331.717 874.718 332.151 874.27 331.949C874.173 331.904 874.098 331.829 874.053 331.732Z" fill="white" fill-opacity="0.1"/>
<path d="M1112.05 267.732C1111.85 267.283 1112.28 266.849 1112.73 267.051C1112.83 267.096 1112.91 267.171 1112.95 267.268C1113.16 267.717 1112.71 268.151 1112.27 267.949C1112.17 267.904 1112.09 267.829 1112.05 267.732Z" fill="white" fill-opacity="0.1"/>
<path d="M1187.73 86.9465C1187.28 87.1555 1186.85 86.7151 1187.05 86.2673C1187.1 86.1703 1187.17 86.0956 1187.27 86.0508C1187.72 85.8493 1188.15 86.2822 1187.95 86.73C1187.9 86.8271 1187.83 86.9017 1187.73 86.9465Z" fill="white" fill-opacity="0.1"/>
<path d="M732.949 159.732C733.151 159.283 732.717 158.849 732.268 159.051C732.171 159.096 732.096 159.171 732.051 159.268C731.849 159.717 732.283 160.151 732.732 159.949C732.829 159.904 732.904 159.829 732.949 159.732Z" fill="white" fill-opacity="0.8"/>
<path d="M714.947 309.732C715.156 309.283 714.715 308.849 714.268 309.051C714.171 309.096 714.096 309.17 714.051 309.268C713.85 309.717 714.283 310.151 714.73 309.949C714.827 309.904 714.902 309.829 714.947 309.732Z" fill="white" fill-opacity="0.1"/>
<path d="M674.949 170.732C675.15 170.283 674.717 169.849 674.27 170.051C674.173 170.096 674.099 170.171 674.054 170.268C673.845 170.717 674.284 171.152 674.732 170.949C674.829 170.905 674.904 170.83 674.949 170.732Z" fill="white" fill-opacity="0.1"/>
<path d="M744.949 204.732C745.151 204.283 744.717 203.849 744.268 204.051C744.171 204.096 744.096 204.171 744.051 204.268C743.849 204.717 744.283 205.151 744.732 204.949C744.829 204.904 744.904 204.829 744.949 204.732Z" fill="white" fill-opacity="0.1"/>
<path d="M512.946 271.732C513.156 271.283 512.715 270.849 512.267 271.051C512.17 271.096 512.096 271.171 512.051 271.268C511.849 271.717 512.282 272.151 512.73 271.949C512.827 271.904 512.902 271.829 512.946 271.732Z" fill="white" fill-opacity="0.1"/>
<path d="M669.946 353.732C670.156 353.283 669.715 352.849 669.267 353.051C669.17 353.096 669.096 353.171 669.051 353.268C668.849 353.717 669.282 354.151 669.73 353.949C669.827 353.904 669.902 353.829 669.946 353.732Z" fill="white" fill-opacity="0.1"/>
<path d="M816.949 372.732C817.151 372.283 816.718 371.849 816.27 372.051C816.173 372.096 816.098 372.171 816.053 372.268C815.845 372.717 816.285 373.151 816.733 372.949C816.83 372.904 816.904 372.829 816.949 372.732Z" fill="white" fill-opacity="0.1"/>
<path d="M469.946 162.732C470.156 162.283 469.715 161.849 469.267 162.051C469.17 162.096 469.096 162.171 469.051 162.268C468.849 162.717 469.282 163.151 469.73 162.949C469.827 162.904 469.902 162.829 469.946 162.732Z" fill="white" fill-opacity="0.8"/>
<path d="M464.949 314.732C465.151 314.283 464.718 313.849 464.27 314.051C464.173 314.096 464.099 314.171 464.054 314.268C463.844 314.717 464.285 315.151 464.733 314.949C464.83 314.904 464.905 314.829 464.949 314.732Z" fill="white" fill-opacity="0.1"/>
<path d="M633.949 180.731C634.15 180.283 633.717 179.85 633.27 180.051C633.173 180.096 633.099 180.171 633.054 180.268C632.845 180.715 633.285 181.155 633.732 180.946C633.829 180.901 633.904 180.827 633.949 180.731Z" fill="white" fill-opacity="0.1"/>
<path d="M569.949 387.732C570.15 387.283 569.717 386.849 569.27 387.051C569.172 387.096 569.099 387.171 569.054 387.268C568.845 387.717 569.284 388.151 569.732 387.949C569.829 387.904 569.904 387.829 569.949 387.732Z" fill="white" fill-opacity="0.1"/>
<path d="M748.732 241.054C748.283 240.844 747.849 241.285 748.051 241.733C748.096 241.83 748.171 241.904 748.268 241.949C748.717 242.151 749.151 241.718 748.949 241.27C748.904 241.173 748.829 241.098 748.732 241.054Z" fill="white" fill-opacity="0.1"/>
<path d="M413.949 229.732C414.151 229.283 413.718 228.849 413.27 229.051C413.173 229.096 413.098 229.171 413.054 229.268C412.844 229.717 413.285 230.151 413.733 229.949C413.83 229.904 413.904 229.83 413.949 229.732Z" fill="white" fill-opacity="0.1"/>
<path d="M451.946 195.732C452.155 195.283 451.715 194.849 451.268 195.051C451.171 195.096 451.096 195.171 451.051 195.268C450.85 195.717 451.283 196.151 451.73 195.949C451.827 195.904 451.901 195.829 451.946 195.732Z" fill="white" fill-opacity="0.1"/>
<path d="M712.949 383.732C713.151 383.283 712.717 382.849 712.268 383.051C712.171 383.096 712.096 383.171 712.051 383.268C711.849 383.717 712.283 384.151 712.732 383.949C712.83 383.904 712.904 383.83 712.949 383.732Z" fill="white" fill-opacity="0.1"/>
<path d="M525.054 188.732C524.845 188.283 525.285 187.849 525.732 188.051C525.829 188.096 525.904 188.171 525.949 188.268C526.15 188.717 525.717 189.151 525.27 188.949C525.173 188.904 525.099 188.829 525.054 188.732Z" fill="white" fill-opacity="0.8"/>
<path d="M750.051 296.732C749.849 296.283 750.282 295.849 750.73 296.051C750.827 296.096 750.902 296.171 750.946 296.268C751.156 296.717 750.715 297.151 750.267 296.949C750.17 296.904 750.096 296.829 750.051 296.732Z" fill="white" fill-opacity="0.1"/>
<path d="M728.054 264.732C727.844 264.283 728.285 263.849 728.733 264.051C728.83 264.096 728.904 264.171 728.949 264.268C729.151 264.717 728.718 265.151 728.27 264.949C728.173 264.905 728.098 264.83 728.054 264.732Z" fill="white" fill-opacity="0.8"/>
<path d="M769.051 346.732C768.85 346.283 769.283 345.849 769.73 346.051C769.827 346.096 769.901 346.171 769.946 346.268C770.155 346.717 769.716 347.151 769.268 346.949C769.171 346.904 769.096 346.829 769.051 346.732Z" fill="white" fill-opacity="0.1"/>
<path d="M810.732 306.949C810.283 307.152 809.849 306.717 810.051 306.268C810.096 306.171 810.171 306.096 810.268 306.051C810.717 305.849 811.151 306.283 810.949 306.732C810.904 306.83 810.83 306.905 810.732 306.949Z" fill="white" fill-opacity="0.8"/>
<path d="M787.732 270.946C787.283 271.156 786.849 270.715 787.051 270.267C787.096 270.17 787.171 270.096 787.268 270.051C787.717 269.849 788.151 270.282 787.949 270.73C787.904 270.827 787.829 270.902 787.732 270.946Z" fill="white" fill-opacity="0.1"/>
<path d="M424.051 173.732C423.849 173.283 424.283 172.849 424.732 173.051C424.829 173.096 424.904 173.171 424.949 173.268C425.151 173.717 424.717 174.151 424.268 173.949C424.171 173.904 424.096 173.829 424.051 173.732Z" fill="white" fill-opacity="0.1"/>
<path d="M598.053 335.733C597.845 335.285 598.285 334.844 598.733 335.054C598.83 335.098 598.904 335.173 598.949 335.27C599.151 335.718 598.718 336.151 598.27 335.949C598.173 335.904 598.098 335.83 598.053 335.733Z" fill="white" fill-opacity="0.1"/>
<path d="M535.051 218.732C534.848 218.283 535.283 217.849 535.732 218.051C535.829 218.096 535.904 218.171 535.949 218.268C536.151 218.717 535.717 219.151 535.268 218.949C535.17 218.904 535.095 218.829 535.051 218.732Z" fill="white" fill-opacity="0.8"/>
<path d="M486.051 233.732C485.849 233.283 486.282 232.849 486.73 233.051C486.827 233.096 486.902 233.171 486.946 233.268C487.156 233.717 486.715 234.151 486.267 233.949C486.17 233.904 486.096 233.829 486.051 233.732Z" fill="white" fill-opacity="0.1"/>
<path d="M540.053 258.732C539.845 258.283 540.285 257.849 540.733 258.051C540.83 258.096 540.904 258.171 540.949 258.268C541.151 258.717 540.718 259.151 540.27 258.949C540.173 258.905 540.098 258.83 540.053 258.732Z" fill="white" fill-opacity="0.1"/>
<path d="M437.051 254.73C436.849 254.282 437.282 253.849 437.73 254.051C437.827 254.096 437.902 254.17 437.946 254.267C438.156 254.715 437.715 255.156 437.267 254.946C437.17 254.902 437.096 254.827 437.051 254.73Z" fill="white" fill-opacity="0.1"/>
<path d="M612.051 375.732C611.849 375.283 612.283 374.849 612.732 375.051C612.83 375.096 612.904 375.171 612.949 375.268C613.151 375.717 612.717 376.151 612.268 375.949C612.171 375.904 612.096 375.829 612.051 375.732Z" fill="white" fill-opacity="0.1"/>
<path d="M846.732 239.946C846.283 240.156 845.849 239.715 846.051 239.267C846.096 239.17 846.171 239.096 846.268 239.051C846.717 238.849 847.151 239.282 846.949 239.73C846.904 239.827 846.829 239.902 846.732 239.946Z" fill="white" fill-opacity="0.1"/>
<path d="M225.054 278.732C224.844 278.283 225.285 277.849 225.733 278.051C225.83 278.096 225.904 278.171 225.949 278.268C226.151 278.717 225.718 279.151 225.27 278.949C225.173 278.904 225.098 278.829 225.054 278.732Z" fill="white" fill-opacity="0.1"/>
<path d="M415.054 444.732C414.844 444.283 415.285 443.849 415.733 444.051C415.83 444.096 415.904 444.171 415.949 444.268C416.151 444.717 415.718 445.151 415.27 444.949C415.173 444.904 415.098 444.829 415.054 444.732Z" fill="white" fill-opacity="0.1"/>
<path d="M325.054 438.732C324.844 438.283 325.285 437.849 325.733 438.051C325.83 438.096 325.904 438.171 325.949 438.268C326.151 438.717 325.718 439.151 325.27 438.949C325.173 438.904 325.098 438.829 325.054 438.732Z" fill="white" fill-opacity="0.8"/>
<path d="M411.054 402.732C410.844 402.283 411.285 401.849 411.733 402.051C411.83 402.096 411.904 402.171 411.949 402.268C412.151 402.717 411.718 403.151 411.27 402.949C411.173 402.904 411.098 402.829 411.054 402.732Z" fill="white" fill-opacity="0.1"/>
<path d="M303.053 311.732C302.844 311.283 303.285 310.849 303.732 311.051C303.829 311.096 303.904 311.171 303.949 311.268C304.15 311.717 303.717 312.151 303.27 311.949C303.173 311.904 303.098 311.829 303.053 311.732Z" fill="white" fill-opacity="0.1"/>
<path d="M410.054 308.732C409.845 308.283 410.284 307.849 410.732 308.051C410.829 308.096 410.904 308.171 410.949 308.268C411.15 308.717 410.717 309.151 410.27 308.949C410.173 308.904 410.099 308.83 410.054 308.732Z" fill="white" fill-opacity="0.1"/>
<path d="M348.051 377.732C347.849 377.283 348.283 376.849 348.732 377.051C348.829 377.096 348.904 377.171 348.949 377.268C349.151 377.717 348.717 378.151 348.268 377.949C348.17 377.904 348.096 377.829 348.051 377.732Z" fill="white" fill-opacity="0.1"/>
<path d="M683.949 48.732C684.151 48.283 683.718 47.8489 683.27 48.051C683.173 48.0959 683.098 48.1707 683.054 48.268C682.844 48.717 683.285 49.1511 683.733 48.949C683.83 48.9041 683.904 48.8293 683.949 48.732Z" fill="white" fill-opacity="0.1"/>
<path d="M655.949 149.732C656.151 149.283 655.718 148.849 655.27 149.051C655.173 149.096 655.098 149.171 655.054 149.268C654.844 149.717 655.285 150.151 655.733 149.949C655.83 149.904 655.904 149.829 655.949 149.732Z" fill="white" fill-opacity="0.8"/>
<path d="M568.051 96.732C567.849 96.2829 568.282 95.849 568.73 96.0509C568.827 96.0958 568.902 96.1707 568.946 96.268C569.156 96.717 568.715 97.1511 568.267 96.949C568.17 96.9041 568.096 96.8292 568.051 96.732Z" fill="white" fill-opacity="0.1"/>
<path d="M644.051 100.732C643.849 100.283 644.283 99.849 644.732 100.051C644.829 100.096 644.904 100.171 644.949 100.268C645.151 100.717 644.717 101.151 644.268 100.949C644.171 100.904 644.096 100.829 644.051 100.732Z" fill="white" fill-opacity="0.1"/>
<path d="M690.054 132.732C689.844 132.283 690.285 131.849 690.733 132.051C690.83 132.096 690.904 132.171 690.949 132.268C691.151 132.717 690.718 133.151 690.27 132.949C690.173 132.904 690.098 132.829 690.054 132.732Z" fill="white" fill-opacity="0.1"/>
<path d="M600.054 126.732C599.844 126.283 600.285 125.849 600.733 126.051C600.83 126.096 600.904 126.171 600.949 126.268C601.151 126.717 600.718 127.151 600.27 126.949C600.173 126.904 600.098 126.829 600.054 126.732Z" fill="white" fill-opacity="0.8"/>
<path d="M686.054 90.732C685.844 90.283 686.285 89.8489 686.733 90.051C686.83 90.0959 686.904 90.1707 686.949 90.268C687.151 90.717 686.718 91.1511 686.27 90.949C686.173 90.9041 686.098 90.8293 686.054 90.732Z" fill="white" fill-opacity="0.1"/>
<path d="M622.051 65.7319C621.849 65.2829 622.283 64.8489 622.732 65.0509C622.829 65.0958 622.904 65.1707 622.949 65.2679C623.151 65.717 622.717 66.1511 622.268 65.9491C622.17 65.9042 622.096 65.8292 622.051 65.7319Z" fill="white" fill-opacity="0.1"/>
<path d="M198.051 357.732C197.849 357.283 198.283 356.849 198.732 357.051C198.829 357.096 198.904 357.171 198.949 357.268C199.151 357.717 198.717 358.151 198.268 357.949C198.17 357.904 198.096 357.829 198.051 357.732Z" fill="white" fill-opacity="0.8"/>
<path d="M90.051 88.732C89.8489 88.283 90.283 87.8489 90.732 88.051C90.8293 88.0959 90.9041 88.1707 90.949 88.268C91.1511 88.717 90.717 89.1511 90.268 88.949C90.1707 88.9041 90.0959 88.8293 90.051 88.732Z" fill="white" fill-opacity="0.1"/>
<path d="M316.051 31.73C315.849 31.2822 316.282 30.8493 316.73 31.0508C316.827 31.0956 316.902 31.1703 316.947 31.2673C317.155 31.7151 316.715 32.1555 316.267 31.9465C316.17 31.9017 316.096 31.8271 316.051 31.73Z" fill="white" fill-opacity="0.1"/>
<path d="M216.051 10.732C215.849 10.283 216.283 9.84891 216.732 10.051C216.829 10.0959 216.904 10.1707 216.949 10.268C217.151 10.717 216.717 11.1511 216.268 10.949C216.17 10.9041 216.096 10.8293 216.051 10.732Z" fill="white" fill-opacity="0.1"/>
<path d="M216.054 55.732C215.844 55.283 216.285 54.8489 216.733 55.051C216.83 55.0959 216.904 55.1707 216.949 55.268C217.151 55.717 216.718 56.1511 216.27 55.949C216.173 55.9041 216.098 55.8293 216.054 55.732Z" fill="white" fill-opacity="0.1"/>
<path d="M370.054 63.732C369.844 63.283 370.285 62.8489 370.733 63.051C370.83 63.0959 370.904 63.1707 370.949 63.268C371.151 63.717 370.718 64.1511 370.27 63.949C370.173 63.9041 370.098 63.8293 370.054 63.732Z" fill="white" fill-opacity="0.1"/>
<path d="M131.051 164.732C130.849 164.283 131.283 163.849 131.732 164.051C131.829 164.096 131.904 164.171 131.949 164.268C132.151 164.717 131.717 165.151 131.268 164.949C131.171 164.904 131.096 164.829 131.051 164.732Z" fill="white" fill-opacity="0.1"/>
<path d="M83.0509 150.732C82.8493 150.283 83.2823 149.849 83.7301 150.051C83.8271 150.096 83.9018 150.171 83.9465 150.268C84.1555 150.717 83.7152 151.151 83.2673 150.949C83.1703 150.904 83.0957 150.829 83.0509 150.732Z" fill="white" fill-opacity="0.1"/>
<path d="M1064.05 594.269C1063.85 594.717 1064.28 595.151 1064.73 594.949C1064.83 594.904 1064.9 594.829 1064.95 594.732C1065.16 594.283 1064.71 593.849 1064.27 594.051C1064.17 594.096 1064.1 594.171 1064.05 594.269Z" fill="white" fill-opacity="0.1"/>
<path d="M731.051 565.269C730.849 565.717 731.283 566.151 731.732 565.949C731.829 565.904 731.904 565.829 731.949 565.732C732.151 565.283 731.717 564.849 731.268 565.051C731.171 565.096 731.096 565.171 731.051 565.269Z" fill="white" fill-opacity="0.1"/>
<path d="M802.051 613.268C801.849 613.717 802.282 614.151 802.73 613.949C802.827 613.904 802.902 613.829 802.946 613.732C803.156 613.283 802.715 612.849 802.267 613.051C802.17 613.096 802.096 613.171 802.051 613.268Z" fill="white" fill-opacity="0.1"/>
<path d="M900.053 848.268C899.845 848.717 900.285 849.151 900.733 848.949C900.83 848.904 900.904 848.83 900.949 848.732C901.151 848.283 900.718 847.849 900.27 848.051C900.173 848.096 900.098 848.171 900.053 848.268Z" fill="white" fill-opacity="0.1"/>
<path d="M840.053 861.267C839.844 861.715 840.285 862.155 840.732 861.946C840.829 861.902 840.904 861.827 840.949 861.73C841.15 861.282 840.718 860.849 840.27 861.051C840.173 861.096 840.098 861.17 840.053 861.267Z" fill="white" fill-opacity="0.1"/>
<path d="M448.051 544.268C447.849 544.717 448.283 545.151 448.732 544.949C448.829 544.904 448.904 544.829 448.949 544.732C449.151 544.283 448.717 543.849 448.268 544.051C448.171 544.096 448.096 544.171 448.051 544.268Z" fill="white" fill-opacity="0.8"/>
<path d="M366.053 515.268C365.845 515.717 366.285 516.151 366.733 515.949C366.83 515.904 366.904 515.829 366.949 515.732C367.151 515.283 366.718 514.849 366.27 515.051C366.173 515.096 366.098 515.171 366.053 515.268Z" fill="white" fill-opacity="0.1"/>
<path d="M195.054 631.268C194.845 631.717 195.283 632.151 195.731 631.949C195.83 631.904 195.9 631.829 195.95 631.732C196.149 631.283 195.721 630.849 195.273 631.051C195.173 631.096 195.104 631.171 195.054 631.268Z" fill="white" fill-opacity="0.1"/>
<path d="M156.054 816.268C155.845 816.717 156.283 817.151 156.731 816.949C156.83 816.904 156.9 816.83 156.95 816.732C157.149 816.283 156.721 815.849 156.273 816.051C156.173 816.096 156.104 816.171 156.054 816.268Z" fill="white" fill-opacity="0.1"/>
<path d="M201.054 773.268C200.845 773.717 201.283 774.151 201.731 773.949C201.83 773.904 201.9 773.829 201.95 773.732C202.149 773.283 201.721 772.849 201.273 773.051C201.173 773.096 201.104 773.171 201.054 773.268Z" fill="white" fill-opacity="0.1"/>
<path d="M54.0502 753.268C53.851 753.717 54.2791 754.151 54.7272 753.949C54.8268 753.904 54.8965 753.829 54.9463 753.732C55.1554 753.283 54.7173 752.849 54.2692 753.051C54.1696 753.096 54.1 753.171 54.0502 753.268Z" fill="white" fill-opacity="0.1"/>
<path d="M832.051 743.268C831.849 743.717 832.282 744.151 832.73 743.949C832.827 743.904 832.902 743.829 832.946 743.732C833.156 743.283 832.715 742.849 832.267 743.051C832.17 743.096 832.096 743.171 832.051 743.268Z" fill="white" fill-opacity="0.1"/>
<path d="M598.051 574.268C597.849 574.717 598.283 575.151 598.732 574.949C598.829 574.904 598.904 574.829 598.949 574.732C599.151 574.283 598.717 573.849 598.268 574.051C598.171 574.096 598.096 574.171 598.051 574.268Z" fill="white" fill-opacity="0.1"/>
<path d="M723.054 618.268C722.845 618.717 723.285 619.151 723.732 618.949C723.829 618.904 723.904 618.829 723.949 618.731C724.15 618.283 723.717 617.849 723.271 618.051C723.174 618.096 723.099 618.171 723.054 618.268Z" fill="white" fill-opacity="0.1"/>
<path d="M959.051 550.268C958.849 550.717 959.282 551.151 959.73 550.949C959.827 550.904 959.902 550.829 959.946 550.732C960.156 550.283 959.715 549.849 959.267 550.051C959.17 550.096 959.096 550.17 959.051 550.268Z" fill="white" fill-opacity="0.1"/>
<path d="M830.051 512.268C829.849 512.717 830.282 513.151 830.73 512.949C830.827 512.904 830.902 512.829 830.946 512.732C831.156 512.283 830.715 511.849 830.267 512.051C830.17 512.096 830.096 512.171 830.051 512.268Z" fill="white" fill-opacity="0.8"/>
<path d="M1107.05 657.268C1106.85 657.717 1107.28 658.151 1107.73 657.949C1107.83 657.904 1107.9 657.829 1107.95 657.732C1108.15 657.283 1107.72 656.849 1107.27 657.051C1107.17 657.096 1107.1 657.171 1107.05 657.268Z" fill="white" fill-opacity="0.8"/>
<path d="M1051.05 679.269C1050.84 679.717 1051.28 680.151 1051.73 679.949C1051.83 679.904 1051.9 679.829 1051.95 679.732C1052.15 679.283 1051.72 678.849 1051.27 679.051C1051.17 679.096 1051.1 679.171 1051.05 679.269Z" fill="white" fill-opacity="0.1"/>
<path d="M1044.05 811.268C1043.85 811.717 1044.28 812.151 1044.73 811.949C1044.83 811.904 1044.9 811.829 1044.95 811.732C1045.15 811.283 1044.72 810.849 1044.27 811.051C1044.17 811.096 1044.1 811.171 1044.05 811.268Z" fill="white" fill-opacity="0.1"/>
<path d="M1050.05 751.268C1049.85 751.717 1050.28 752.151 1050.73 751.949C1050.83 751.904 1050.9 751.829 1050.95 751.732C1051.16 751.283 1050.72 750.849 1050.27 751.051C1050.17 751.096 1050.1 751.171 1050.05 751.268Z" fill="white" fill-opacity="0.1"/>
<path d="M967.051 507.268C966.85 507.717 967.283 508.151 967.73 507.949C967.827 507.904 967.901 507.83 967.946 507.732C968.155 507.283 967.716 506.849 967.268 507.051C967.171 507.096 967.096 507.171 967.051 507.268Z" fill="white" fill-opacity="0.8"/>
<path d="M840.051 677.268C839.849 677.717 840.283 678.151 840.732 677.949C840.83 677.904 840.905 677.829 840.949 677.732C841.152 677.283 840.717 676.849 840.268 677.051C840.171 677.096 840.096 677.171 840.051 677.268Z" fill="white" fill-opacity="0.1"/>
<path d="M871.051 723.268C870.849 723.717 871.283 724.151 871.732 723.949C871.829 723.904 871.904 723.829 871.949 723.732C872.151 723.283 871.717 722.848 871.268 723.051C871.171 723.095 871.096 723.17 871.051 723.268Z" fill="white" fill-opacity="0.8"/>
<path d="M994.732 807.051C994.283 806.849 993.849 807.282 994.051 807.73C994.096 807.827 994.171 807.902 994.268 807.946C994.717 808.156 995.151 807.715 994.949 807.267C994.904 807.17 994.829 807.096 994.732 807.051Z" fill="white" fill-opacity="0.8"/>
<path d="M956.051 636.268C955.85 636.717 956.283 637.151 956.73 636.949C956.828 636.904 956.901 636.829 956.946 636.731C957.155 636.283 956.716 635.849 956.268 636.051C956.171 636.096 956.096 636.171 956.051 636.268Z" fill="white" fill-opacity="0.1"/>
<path d="M663.051 586.268C662.849 586.717 663.282 587.151 663.73 586.949C663.827 586.904 663.902 586.829 663.946 586.732C664.156 586.283 663.715 585.849 663.267 586.051C663.17 586.096 663.096 586.171 663.051 586.268Z" fill="white" fill-opacity="0.1"/>
<path d="M534.051 499.27C533.849 499.718 534.282 500.151 534.73 499.949C534.827 499.904 534.902 499.83 534.946 499.733C535.156 499.285 534.715 498.844 534.267 499.054C534.17 499.098 534.096 499.173 534.051 499.27Z" fill="white" fill-opacity="0.1"/>
<path d="M598.051 534.268C597.849 534.717 598.283 535.151 598.732 534.949C598.829 534.904 598.904 534.829 598.949 534.732C599.151 534.283 598.717 533.849 598.268 534.051C598.171 534.096 598.096 534.171 598.051 534.268Z" fill="white" fill-opacity="0.8"/>
<path d="M317.051 692.268C316.85 692.717 317.283 693.151 317.729 692.949C317.827 692.904 317.901 692.829 317.946 692.732C318.155 692.283 317.716 691.849 317.268 692.051C317.171 692.096 317.096 692.171 317.051 692.268Z" fill="white" fill-opacity="0.8"/>
<path d="M250.05 851.268C249.851 851.717 250.279 852.151 250.728 851.949C250.827 851.904 250.897 851.829 250.947 851.732C251.156 851.283 250.708 850.849 250.269 851.051C250.17 851.096 250.1 851.171 250.05 851.268Z" fill="white" fill-opacity="0.1"/>
<path d="M301.051 738.268C300.85 738.717 301.283 739.151 301.73 738.949C301.827 738.904 301.902 738.829 301.947 738.732C302.156 738.283 301.715 737.849 301.268 738.051C301.171 738.096 301.096 738.171 301.051 738.268Z" fill="white" fill-opacity="0.1"/>
<path d="M730.051 654.268C729.848 654.717 730.283 655.151 730.732 654.949C730.829 654.904 730.904 654.829 730.949 654.732C731.151 654.283 730.717 653.849 730.268 654.051C730.17 654.096 730.095 654.171 730.051 654.268Z" fill="white" fill-opacity="0.1"/>
<path d="M276.054 618.268C275.844 618.717 276.285 619.151 276.733 618.949C276.83 618.904 276.904 618.829 276.949 618.732C277.151 618.283 276.718 617.849 276.27 618.051C276.173 618.096 276.098 618.171 276.054 618.268Z" fill="white" fill-opacity="0.8"/>
<path d="M758.053 488.268C757.845 488.717 758.285 489.151 758.733 488.949C758.83 488.904 758.904 488.829 758.949 488.732C759.151 488.283 758.718 487.849 758.27 488.051C758.173 488.096 758.098 488.171 758.053 488.268Z" fill="white" fill-opacity="0.1"/>
<path d="M164.05 503.268C163.851 503.717 164.28 504.151 164.73 503.949C164.83 503.904 164.9 503.829 164.95 503.732C165.149 503.283 164.72 502.849 164.27 503.051C164.17 503.096 164.1 503.171 164.05 503.268Z" fill="white" fill-opacity="0.1"/>
<path d="M1029.05 709.268C1028.85 709.717 1029.28 710.151 1029.73 709.949C1029.83 709.904 1029.9 709.829 1029.95 709.732C1030.16 709.283 1029.72 708.849 1029.27 709.051C1029.17 709.096 1029.1 709.171 1029.05 709.268Z" fill="white" fill-opacity="0.1"/>
<path d="M369.054 616.268C368.844 616.717 369.285 617.151 369.733 616.949C369.83 616.904 369.905 616.829 369.949 616.732C370.151 616.283 369.718 615.849 369.27 616.051C369.173 616.096 369.099 616.171 369.054 616.268Z" fill="white" fill-opacity="0.1"/>
<path d="M169.054 677.268C168.845 677.717 169.283 678.151 169.731 677.949C169.83 677.904 169.9 677.829 169.95 677.732C170.149 677.283 169.721 676.849 169.273 677.051C169.173 677.096 169.104 677.171 169.054 677.268Z" fill="white" fill-opacity="0.8"/>
<path d="M158.05 743.268C157.851 743.717 158.28 744.151 158.73 743.949C158.83 743.904 158.9 743.829 158.95 743.732C159.149 743.283 158.72 742.849 158.27 743.051C158.17 743.096 158.1 743.17 158.05 743.268Z" fill="white" fill-opacity="0.1"/>
<path d="M863.949 783.268C864.151 783.717 863.717 784.151 863.268 783.949C863.171 783.904 863.096 783.829 863.051 783.732C862.849 783.283 863.283 782.849 863.732 783.051C863.829 783.096 863.904 783.171 863.949 783.268Z" fill="white" fill-opacity="0.1"/>
<path d="M567.949 549.268C568.151 549.717 567.717 550.151 567.268 549.949C567.171 549.904 567.096 549.829 567.051 549.732C566.849 549.283 567.283 548.849 567.732 549.051C567.829 549.096 567.904 549.171 567.949 549.268Z" fill="white" fill-opacity="0.1"/>
<path d="M917.949 566.268C918.151 566.717 917.718 567.152 917.27 566.949C917.173 566.905 917.098 566.83 917.054 566.732C916.844 566.283 917.285 565.849 917.733 566.051C917.83 566.096 917.904 566.171 917.949 566.268Z" fill="white" fill-opacity="0.1"/>
<path d="M654.949 546.268C655.151 546.717 654.717 547.151 654.268 546.949C654.171 546.904 654.096 546.829 654.051 546.732C653.849 546.283 654.283 545.849 654.732 546.051C654.829 546.096 654.904 546.171 654.949 546.268Z" fill="white" fill-opacity="0.1"/>
<path d="M534.949 530.27C535.151 530.718 534.718 531.151 534.27 530.949C534.173 530.904 534.098 530.83 534.054 530.733C533.844 530.285 534.285 529.844 534.733 530.054C534.83 530.098 534.904 530.173 534.949 530.27Z" fill="white" fill-opacity="0.1"/>
<path d="M956.949 663.268C957.15 663.717 956.718 664.151 956.27 663.949C956.173 663.904 956.098 663.829 956.053 663.732C955.844 663.283 956.285 662.849 956.732 663.051C956.829 663.096 956.904 663.171 956.949 663.268Z" fill="white" fill-opacity="0.1"/>
<path d="M1009.73 848.946C1009.28 849.156 1008.85 848.715 1009.05 848.267C1009.1 848.17 1009.17 848.096 1009.27 848.051C1009.72 847.849 1010.15 848.282 1009.95 848.73C1009.9 848.827 1009.83 848.902 1009.73 848.946Z" fill="white" fill-opacity="0.1"/>
<path d="M1092.95 677.268C1093.15 677.717 1092.72 678.151 1092.27 677.949C1092.17 677.904 1092.1 677.83 1092.05 677.732C1091.84 677.283 1092.28 676.849 1092.73 677.051C1092.83 677.096 1092.9 677.171 1092.95 677.268Z" fill="white" fill-opacity="0.1"/>
<path d="M238.95 631.267C239.15 631.715 238.71 632.156 238.27 631.946C238.17 631.902 238.09 631.827 238.05 631.73C237.85 631.282 238.28 630.849 238.73 631.051C238.83 631.096 238.9 631.17 238.95 631.267Z" fill="white" fill-opacity="0.1"/>
<path d="M204.946 580.268C205.155 580.717 204.717 581.151 204.269 580.949C204.17 580.904 204.1 580.83 204.05 580.732C203.851 580.283 204.279 579.849 204.727 580.051C204.827 580.096 204.896 580.171 204.946 580.268Z" fill="white" fill-opacity="0.8"/>
<path d="M120.95 830.268C121.149 830.717 120.721 831.151 120.273 830.949C120.173 830.904 120.104 830.829 120.054 830.732C119.845 830.283 120.283 829.849 120.731 830.051C120.83 830.096 120.9 830.171 120.95 830.268Z" fill="white" fill-opacity="0.1"/>
<path d="M142.946 862.268C143.157 862.717 142.714 863.151 142.272 862.949C142.171 862.904 142.091 862.829 142.051 862.732C141.85 862.283 142.282 861.849 142.735 862.051C142.825 862.096 142.905 862.171 142.946 862.268Z" fill="white" fill-opacity="0.8"/>
<path d="M206.946 708.268C207.155 708.717 206.717 709.151 206.269 708.949C206.17 708.904 206.1 708.829 206.05 708.732C205.851 708.283 206.279 707.849 206.727 708.051C206.827 708.096 206.896 708.171 206.946 708.268Z" fill="white" fill-opacity="0.1"/>
<path d="M1024.95 586.268C1025.15 586.717 1024.72 587.152 1024.27 586.949C1024.17 586.905 1024.09 586.83 1024.05 586.732C1023.85 586.283 1024.28 585.849 1024.73 586.051C1024.83 586.096 1024.9 586.171 1024.95 586.268Z" fill="white" fill-opacity="0.1"/>
<path d="M1137.95 726.267C1138.16 726.715 1137.72 727.156 1137.27 726.946C1137.17 726.902 1137.1 726.827 1137.05 726.73C1136.85 726.282 1137.28 725.849 1137.73 726.051C1137.83 726.096 1137.9 726.17 1137.95 726.267Z" fill="white" fill-opacity="0.1"/>
<path d="M1105.95 749.268C1106.16 749.717 1105.71 750.151 1105.27 749.949C1105.17 749.904 1105.1 749.829 1105.05 749.732C1104.85 749.283 1105.28 748.849 1105.73 749.051C1105.83 749.096 1105.9 749.171 1105.95 749.268Z" fill="white" fill-opacity="0.8"/>
<path d="M942.949 724.268C943.15 724.717 942.717 725.151 942.27 724.949C942.173 724.904 942.099 724.829 942.054 724.732C941.845 724.283 942.285 723.849 942.732 724.051C942.829 724.096 942.904 724.171 942.949 724.268Z" fill="white" fill-opacity="0.1"/>
<path d="M1176.95 846.268C1177.15 846.717 1176.72 847.151 1176.27 846.949C1176.17 846.904 1176.1 846.829 1176.05 846.732C1175.84 846.283 1176.28 845.849 1176.73 846.051C1176.83 846.096 1176.9 846.171 1176.95 846.268Z" fill="white" fill-opacity="0.1"/>
<path d="M101.95 780.268C102.15 780.717 101.72 781.151 101.27 780.949C101.17 780.904 101.1 780.829 101.05 780.732C100.85 780.283 101.29 779.849 101.73 780.051C101.83 780.096 101.91 780.171 101.95 780.268Z" fill="white" fill-opacity="0.1"/>
<path d="M60.2703 819.051C60.7199 818.848 61.1495 819.283 60.9496 819.732C60.8997 819.829 60.8298 819.904 60.7299 819.949C60.2802 820.151 59.8505 819.717 60.0503 819.268C60.1003 819.17 60.1703 819.095 60.2703 819.051Z" fill="white" fill-opacity="0.8"/>
<path d="M83.2702 856.054C83.7199 855.844 84.1495 856.285 83.9496 856.733C83.8997 856.83 83.8298 856.904 83.7298 856.949C83.2801 857.151 82.8505 856.718 83.0504 856.27C83.1003 856.173 83.1702 856.098 83.2702 856.054Z" fill="white" fill-opacity="0.1"/>
<path d="M1003.95 741.268C1004.15 741.717 1003.72 742.151 1003.27 741.949C1003.17 741.904 1003.1 741.83 1003.05 741.732C1002.84 741.283 1003.28 740.849 1003.73 741.051C1003.83 741.096 1003.9 741.171 1003.95 741.268Z" fill="white" fill-opacity="0.1"/>
<path d="M842.949 561.268C843.151 561.717 842.717 562.151 842.268 561.949C842.171 561.904 842.096 561.829 842.051 561.732C841.849 561.283 842.283 560.849 842.732 561.051C842.829 561.096 842.904 561.171 842.949 561.268Z" fill="white" fill-opacity="0.1"/>
<path d="M210.946 555.268C211.157 555.717 210.714 556.151 210.262 555.949C210.171 555.904 210.091 555.829 210.051 555.732C209.85 555.283 210.282 554.848 210.735 555.051C210.825 555.095 210.905 555.17 210.946 555.268Z" fill="white" fill-opacity="0.8"/>
<path d="M684.949 534.268C685.151 534.717 684.717 535.151 684.268 534.949C684.171 534.904 684.096 534.829 684.051 534.732C683.849 534.283 684.283 533.849 684.732 534.051C684.829 534.096 684.904 534.171 684.949 534.268Z" fill="white" fill-opacity="0.1"/>
<path d="M621.949 501.268C622.151 501.717 621.717 502.151 621.268 501.949C621.171 501.904 621.096 501.829 621.051 501.732C620.849 501.283 621.283 500.849 621.732 501.051C621.829 501.096 621.904 501.171 621.949 501.268Z" fill="white" fill-opacity="0.8"/>
<path d="M508.949 578.268C509.152 578.717 508.717 579.151 508.268 578.949C508.171 578.904 508.096 578.83 508.051 578.732C507.849 578.283 508.283 577.849 508.732 578.051C508.83 578.096 508.905 578.171 508.949 578.268Z" fill="white" fill-opacity="0.8"/>
<path d="M732.949 528.268C733.151 528.717 732.717 529.151 732.268 528.949C732.171 528.904 732.096 528.829 732.051 528.732C731.849 528.283 732.283 527.849 732.732 528.051C732.829 528.096 732.904 528.171 732.949 528.268Z" fill="white" fill-opacity="0.8"/>
<path d="M694.949 488.268C695.151 488.717 694.718 489.151 694.27 488.949C694.173 488.904 694.098 488.829 694.054 488.732C693.844 488.283 694.285 487.849 694.733 488.051C694.83 488.096 694.904 488.171 694.949 488.268Z" fill="white" fill-opacity="0.1"/>
<path d="M402.949 571.268C403.151 571.717 402.718 572.151 402.27 571.949C402.173 571.904 402.098 571.829 402.054 571.732C401.844 571.283 402.285 570.849 402.733 571.051C402.83 571.095 402.905 571.17 402.949 571.268Z" fill="white" fill-opacity="0.1"/>
<path d="M434.946 586.268C435.156 586.717 434.715 587.151 434.267 586.949C434.17 586.904 434.096 586.829 434.051 586.732C433.849 586.283 434.282 585.849 434.73 586.051C434.827 586.096 434.902 586.17 434.946 586.268Z" fill="white" fill-opacity="0.1"/>
<path d="M272.946 791.267C273.156 791.715 272.715 792.156 272.267 791.946C272.17 791.902 272.096 791.827 272.051 791.73C271.849 791.282 272.282 790.849 272.73 791.051C272.827 791.096 272.902 791.17 272.946 791.267Z" fill="white" fill-opacity="0.1"/>
<path d="M318.949 572.268C319.151 572.717 318.717 573.151 318.268 572.949C318.171 572.904 318.096 572.829 318.051 572.732C317.849 572.283 318.283 571.849 318.732 572.051C318.83 572.096 318.904 572.171 318.949 572.268Z" fill="white" fill-opacity="0.1"/>
<path d="M234.95 696.268C235.149 696.717 234.721 697.151 234.273 696.949C234.173 696.904 234.104 696.829 234.054 696.732C233.845 696.283 234.283 695.849 234.731 696.051C234.83 696.096 234.9 696.171 234.95 696.268Z" fill="white" fill-opacity="0.1"/>
<path d="M258.95 751.268C259.149 751.717 258.72 752.151 258.27 751.949C258.17 751.904 258.1 751.829 258.05 751.732C257.851 751.283 258.28 750.849 258.73 751.051C258.83 751.096 258.91 751.171 258.95 751.268Z" fill="white" fill-opacity="0.1"/>
<path d="M153.946 620.268C154.155 620.717 153.717 621.151 153.269 620.949C153.17 620.904 153.1 620.829 153.05 620.732C152.851 620.283 153.279 619.849 153.727 620.051C153.827 620.096 153.896 620.171 153.946 620.268Z" fill="white" fill-opacity="0.1"/>
<path d="M279.949 665.268C280.151 665.717 279.718 666.151 279.27 665.949C279.173 665.904 279.098 665.829 279.054 665.732C278.844 665.283 279.285 664.849 279.733 665.051C279.83 665.096 279.904 665.171 279.949 665.268Z" fill="white" fill-opacity="0.1"/>
<path d="M125.949 656.268C126.15 656.717 125.718 657.151 125.266 656.949C125.175 656.904 125.094 656.83 125.054 656.732C124.843 656.283 125.286 655.849 125.738 656.051C125.829 656.096 125.909 656.171 125.949 656.268Z" fill="white" fill-opacity="0.1"/>
<path d="M1007.95 656.268C1008.15 656.717 1007.72 657.151 1007.27 656.949C1007.17 656.904 1007.1 656.829 1007.05 656.732C1006.84 656.283 1007.28 655.849 1007.73 656.051C1007.83 656.096 1007.9 656.17 1007.95 656.268Z" fill="white" fill-opacity="0.1"/>
<path d="M271.949 567.268C272.151 567.717 271.718 568.151 271.27 567.949C271.173 567.904 271.1 567.829 271.05 567.731C270.85 567.283 271.284 566.849 271.733 567.051C271.83 567.096 271.904 567.171 271.949 567.268Z" fill="white" fill-opacity="0.1"/>
<path d="M493.949 534.268C494.151 534.717 493.717 535.151 493.268 534.949C493.171 534.904 493.096 534.829 493.051 534.732C492.849 534.283 493.283 533.849 493.732 534.051C493.829 534.096 493.904 534.171 493.949 534.268Z" fill="white" fill-opacity="0.1"/>
<path d="M285.946 512.268C286.156 512.717 285.715 513.151 285.267 512.949C285.17 512.904 285.096 512.83 285.051 512.732C284.849 512.283 285.282 511.849 285.73 512.051C285.827 512.096 285.902 512.171 285.946 512.268Z" fill="white" fill-opacity="0.8"/>
<path d="M406.054 856.268C405.844 856.717 406.285 857.151 406.733 856.949C406.83 856.904 406.904 856.829 406.949 856.732C407.151 856.283 406.718 855.849 406.27 856.051C406.173 856.096 406.098 856.171 406.054 856.268Z" fill="white" fill-opacity="0.8"/>
<path d="M294.051 741.268C293.849 741.717 294.283 742.151 294.732 741.949C294.829 741.904 294.904 741.829 294.949 741.732C295.151 741.283 294.717 740.849 294.268 741.051C294.171 741.096 294.096 741.171 294.051 741.268Z" fill="white" fill-opacity="0.1"/>
<path d="M335.947 818.268C336.156 818.717 335.715 819.151 335.268 818.949C335.17 818.904 335.096 818.83 335.051 818.732C334.85 818.283 335.282 817.849 335.73 818.051C335.827 818.096 335.902 818.171 335.947 818.268Z" fill="white" fill-opacity="0.8"/>
<path d="M341.946 793.268C342.155 793.717 341.715 794.151 341.268 793.949C341.171 793.904 341.096 793.829 341.051 793.732C340.85 793.283 341.283 792.848 341.73 793.051C341.827 793.095 341.901 793.17 341.946 793.268Z" fill="white" fill-opacity="0.8"/>
<path d="M284.947 858.268C285.155 858.717 284.715 859.151 284.267 858.949C284.17 858.904 284.096 858.829 284.051 858.732C283.849 858.283 284.282 857.849 284.73 858.051C284.827 858.096 284.902 858.171 284.947 858.268Z" fill="white" fill-opacity="0.1"/>
<path d="M402.949 805.268C403.151 805.717 402.717 806.151 402.268 805.949C402.17 805.904 402.095 805.829 402.051 805.731C401.849 805.283 402.283 804.849 402.732 805.051C402.829 805.096 402.904 805.171 402.949 805.268Z" fill="white" fill-opacity="0.1"/>
<path d="M416.946 750.268C417.156 750.717 416.715 751.151 416.267 750.949C416.17 750.904 416.096 750.83 416.051 750.732C415.849 750.283 416.282 749.849 416.73 750.051C416.827 750.096 416.902 750.171 416.946 750.268Z" fill="white" fill-opacity="0.8"/>
<path d="M337.947 642.268C338.156 642.717 337.715 643.151 337.268 642.949C337.171 642.904 337.096 642.83 337.051 642.732C336.85 642.283 337.282 641.849 337.73 642.051C337.827 642.096 337.902 642.171 337.947 642.268Z" fill="white" fill-opacity="0.1"/>
<path d="M99.9493 706.268C100.15 706.717 99.718 707.151 99.2655 706.949C99.175 706.904 99.0945 706.829 99.0543 706.732C98.8431 706.283 99.2857 705.849 99.7281 706.051C99.8287 706.096 99.9091 706.171 99.9493 706.268Z" fill="white" fill-opacity="0.1"/>
<path d="M479.051 814.268C478.849 814.717 479.283 815.151 479.732 814.949C479.829 814.904 479.904 814.829 479.949 814.732C480.151 814.283 479.717 813.849 479.268 814.051C479.171 814.096 479.096 814.171 479.051 814.268Z" fill="white" fill-opacity="0.8"/>
<path d="M497.053 664.268C496.844 664.717 497.285 665.151 497.732 664.949C497.829 664.904 497.904 664.83 497.949 664.732C498.15 664.283 497.717 663.849 497.27 664.051C497.173 664.096 497.098 664.171 497.053 664.268Z" fill="white" fill-opacity="0.1"/>
<path d="M537.051 803.268C536.85 803.717 537.283 804.151 537.73 803.949C537.827 803.904 537.901 803.829 537.946 803.732C538.155 803.283 537.716 802.848 537.268 803.051C537.171 803.095 537.096 803.17 537.051 803.268Z" fill="white" fill-opacity="0.1"/>
<path d="M467.051 769.268C466.849 769.717 467.283 770.151 467.732 769.949C467.829 769.904 467.904 769.829 467.949 769.732C468.151 769.283 467.717 768.849 467.268 769.051C467.171 769.096 467.096 769.171 467.051 769.268Z" fill="white" fill-opacity="0.1"/>
<path d="M699.054 702.268C698.844 702.717 699.285 703.151 699.733 702.949C699.83 702.904 699.904 702.829 699.949 702.732C700.151 702.283 699.718 701.849 699.27 702.051C699.173 702.096 699.098 702.171 699.054 702.268Z" fill="white" fill-opacity="0.1"/>
<path d="M542.054 620.268C541.844 620.717 542.285 621.151 542.733 620.949C542.83 620.904 542.904 620.829 542.949 620.732C543.151 620.283 542.718 619.849 542.27 620.051C542.173 620.096 542.098 620.171 542.054 620.268Z" fill="white" fill-opacity="0.1"/>
<path d="M395.051 601.268C394.849 601.717 395.282 602.151 395.73 601.949C395.827 601.904 395.902 601.829 395.947 601.732C396.155 601.283 395.715 600.849 395.267 601.051C395.17 601.096 395.096 601.171 395.051 601.268Z" fill="white" fill-opacity="0.1"/>
<path d="M742.054 811.268C741.844 811.717 742.285 812.151 742.733 811.949C742.83 811.904 742.904 811.829 742.949 811.732C743.151 811.283 742.718 810.849 742.27 811.051C742.173 811.096 742.098 811.171 742.054 811.268Z" fill="white" fill-opacity="0.8"/>
<path d="M747.051 659.268C746.849 659.717 747.282 660.151 747.73 659.949C747.827 659.904 747.901 659.829 747.946 659.732C748.156 659.283 747.715 658.849 747.267 659.051C747.17 659.096 747.095 659.171 747.051 659.268Z" fill="white" fill-opacity="0.1"/>
<path d="M578.051 793.269C577.85 793.717 578.283 794.15 578.73 793.949C578.827 793.904 578.901 793.829 578.946 793.732C579.155 793.285 578.715 792.845 578.268 793.054C578.171 793.099 578.096 793.173 578.051 793.269Z" fill="white" fill-opacity="0.1"/>
<path d="M642.051 586.268C641.85 586.717 642.283 587.151 642.73 586.949C642.828 586.904 642.901 586.829 642.946 586.732C643.155 586.283 642.716 585.849 642.268 586.051C642.171 586.096 642.096 586.171 642.051 586.268Z" fill="white" fill-opacity="0.1"/>
<path d="M463.268 732.946C463.717 733.156 464.151 732.715 463.949 732.267C463.904 732.17 463.829 732.096 463.732 732.051C463.283 731.849 462.849 732.282 463.051 732.73C463.096 732.827 463.171 732.902 463.268 732.946Z" fill="white" fill-opacity="0.1"/>
<path d="M798.051 744.268C797.849 744.717 798.282 745.151 798.73 744.949C798.827 744.904 798.902 744.829 798.946 744.732C799.156 744.283 798.715 743.849 798.267 744.051C798.17 744.096 798.096 744.17 798.051 744.268Z" fill="white" fill-opacity="0.1"/>
<path d="M760.054 778.268C759.845 778.717 760.285 779.151 760.732 778.949C760.829 778.904 760.904 778.829 760.949 778.732C761.15 778.283 760.717 777.849 760.27 778.051C760.173 778.096 760.099 778.171 760.054 778.268Z" fill="white" fill-opacity="0.1"/>
<path d="M499.051 590.268C498.849 590.717 499.283 591.151 499.732 590.949C499.829 590.904 499.904 590.829 499.949 590.732C500.151 590.283 499.717 589.849 499.268 590.051C499.17 590.096 499.096 590.17 499.051 590.268Z" fill="white" fill-opacity="0.1"/>
<path d="M686.946 785.268C687.155 785.717 686.715 786.151 686.268 785.949C686.171 785.904 686.096 785.829 686.051 785.732C685.85 785.283 686.283 784.849 686.73 785.051C686.827 785.096 686.901 785.171 686.946 785.268Z" fill="white" fill-opacity="0.8"/>
<path d="M461.949 677.268C462.151 677.717 461.718 678.151 461.27 677.949C461.173 677.904 461.098 677.829 461.054 677.732C460.844 677.283 461.285 676.849 461.733 677.051C461.83 677.096 461.904 677.171 461.949 677.268Z" fill="white" fill-opacity="0.1"/>
<path d="M483.946 709.268C484.156 709.717 483.715 710.151 483.267 709.949C483.17 709.904 483.096 709.829 483.051 709.732C482.849 709.283 483.282 708.849 483.73 709.051C483.827 709.095 483.902 709.17 483.946 709.268Z" fill="white" fill-opacity="0.8"/>
<path d="M442.949 627.268C443.15 627.717 442.717 628.151 442.27 627.949C442.173 627.904 442.099 627.829 442.054 627.732C441.845 627.283 442.284 626.849 442.732 627.051C442.829 627.096 442.904 627.171 442.949 627.268Z" fill="white" fill-opacity="0.1"/>
<path d="M401.268 667.051C401.717 666.848 402.151 667.283 401.949 667.732C401.904 667.829 401.829 667.904 401.732 667.949C401.283 668.151 400.849 667.717 401.051 667.268C401.096 667.17 401.17 667.095 401.268 667.051Z" fill="white" fill-opacity="0.8"/>
<path d="M424.268 703.054C424.717 702.844 425.151 703.285 424.949 703.733C424.904 703.83 424.829 703.904 424.732 703.949C424.283 704.151 423.849 703.718 424.051 703.27C424.096 703.173 424.171 703.098 424.268 703.054Z" fill="white" fill-opacity="0.1"/>
<path d="M787.949 800.268C788.151 800.717 787.717 801.151 787.268 800.949C787.171 800.904 787.096 800.829 787.051 800.732C786.849 800.283 787.283 799.849 787.732 800.051C787.829 800.096 787.904 800.171 787.949 800.268Z" fill="white" fill-opacity="0.1"/>
<path d="M613.947 638.267C614.155 638.715 613.715 639.156 613.267 638.946C613.17 638.902 613.096 638.827 613.051 638.73C612.849 638.282 613.282 637.849 613.73 638.051C613.827 638.096 613.902 638.17 613.947 638.267Z" fill="white" fill-opacity="0.1"/>
<path d="M676.949 755.268C677.152 755.717 676.717 756.151 676.268 755.949C676.171 755.904 676.096 755.829 676.051 755.732C675.849 755.283 676.283 754.849 676.732 755.051C676.83 755.096 676.905 755.171 676.949 755.268Z" fill="white" fill-opacity="0.8"/>
<path d="M725.949 740.268C726.151 740.717 725.718 741.151 725.27 740.949C725.173 740.904 725.098 740.829 725.054 740.732C724.844 740.283 725.285 739.849 725.733 740.051C725.83 740.096 725.904 740.171 725.949 740.268Z" fill="white" fill-opacity="0.1"/>
<path d="M671.947 715.268C672.155 715.717 671.715 716.151 671.267 715.949C671.17 715.904 671.096 715.829 671.051 715.732C670.849 715.283 671.282 714.849 671.73 715.051C671.827 715.095 671.902 715.17 671.947 715.268Z" fill="white" fill-opacity="0.1"/>
<path d="M774.949 719.27C775.151 719.718 774.718 720.151 774.27 719.949C774.173 719.904 774.098 719.83 774.054 719.733C773.844 719.285 774.285 718.844 774.733 719.054C774.83 719.098 774.904 719.173 774.949 719.27Z" fill="white" fill-opacity="0.1"/>
<path d="M599.949 598.268C600.151 598.717 599.717 599.151 599.268 598.949C599.17 598.904 599.096 598.829 599.051 598.732C598.849 598.283 599.283 597.849 599.732 598.051C599.829 598.096 599.904 598.171 599.949 598.268Z" fill="white" fill-opacity="0.1"/>
<path d="M365.268 734.054C365.717 733.844 366.151 734.285 365.949 734.733C365.904 734.83 365.829 734.904 365.732 734.949C365.283 735.151 364.849 734.718 365.051 734.27C365.096 734.173 365.171 734.098 365.268 734.054Z" fill="white" fill-opacity="0.1"/>
<path d="M986.946 695.268C987.156 695.717 986.715 696.151 986.267 695.949C986.17 695.904 986.096 695.829 986.051 695.732C985.849 695.283 986.282 694.849 986.73 695.051C986.827 695.096 986.902 695.171 986.946 695.268Z" fill="white" fill-opacity="0.1"/>
<path d="M796.946 529.268C797.156 529.717 796.715 530.151 796.267 529.949C796.17 529.904 796.096 529.829 796.051 529.732C795.849 529.283 796.282 528.849 796.73 529.051C796.827 529.096 796.902 529.171 796.946 529.268Z" fill="white" fill-opacity="0.1"/>
<path d="M886.946 535.268C887.156 535.717 886.715 536.151 886.267 535.949C886.17 535.904 886.096 535.829 886.051 535.732C885.849 535.283 886.282 534.849 886.73 535.051C886.827 535.096 886.902 535.171 886.946 535.268Z" fill="white" fill-opacity="0.8"/>
<path d="M800.946 571.268C801.156 571.717 800.715 572.151 800.267 571.949C800.17 571.904 800.096 571.829 800.051 571.732C799.849 571.283 800.282 570.849 800.73 571.051C800.827 571.096 800.902 571.171 800.946 571.268Z" fill="white" fill-opacity="0.1"/>
<path d="M908.947 662.268C909.156 662.717 908.715 663.151 908.268 662.949C908.171 662.904 908.096 662.829 908.051 662.732C907.85 662.283 908.283 661.849 908.73 662.051C908.827 662.096 908.902 662.171 908.947 662.268Z" fill="white" fill-opacity="0.1"/>
<path d="M801.946 665.268C802.155 665.717 801.716 666.151 801.268 665.949C801.171 665.904 801.096 665.829 801.051 665.732C800.85 665.283 801.283 664.849 801.73 665.051C801.827 665.096 801.901 665.17 801.946 665.268Z" fill="white" fill-opacity="0.1"/>
<path d="M863.949 596.268C864.151 596.717 863.717 597.151 863.268 596.949C863.171 596.904 863.096 596.829 863.051 596.732C862.849 596.283 863.283 595.849 863.732 596.051C863.83 596.096 863.904 596.171 863.949 596.268Z" fill="white" fill-opacity="0.1"/>
<path d="M556.051 824.268C555.849 824.717 556.282 825.151 556.73 824.949C556.827 824.904 556.902 824.829 556.946 824.732C557.156 824.283 556.715 823.849 556.267 824.051C556.17 824.096 556.096 824.171 556.051 824.268Z" fill="white" fill-opacity="0.8"/>
<path d="M521.946 841.268C522.156 841.717 521.715 842.151 521.267 841.949C521.17 841.904 521.096 841.829 521.051 841.732C520.849 841.283 521.282 840.849 521.73 841.051C521.827 841.096 521.902 841.171 521.946 841.268Z" fill="white" fill-opacity="0.1"/>
<path d="M611.946 847.268C612.156 847.717 611.715 848.151 611.267 847.949C611.17 847.904 611.096 847.829 611.051 847.732C610.849 847.283 611.282 846.849 611.73 847.051C611.827 847.096 611.902 847.171 611.946 847.268Z" fill="white" fill-opacity="0.8"/>
<path d="M1013.95 616.268C1014.15 616.717 1013.72 617.151 1013.27 616.949C1013.17 616.904 1013.1 616.829 1013.05 616.732C1012.85 616.283 1013.28 615.849 1013.73 616.051C1013.83 616.096 1013.9 616.171 1013.95 616.268Z" fill="white" fill-opacity="0.8"/>
<path d="M1080.95 809.268C1081.15 809.717 1080.72 810.151 1080.27 809.949C1080.17 809.904 1080.1 809.829 1080.05 809.732C1079.85 809.283 1080.28 808.849 1080.73 809.051C1080.83 809.096 1080.9 809.171 1080.95 809.268Z" fill="white" fill-opacity="0.1"/>
<path d="M1128.95 823.268C1129.15 823.717 1128.72 824.151 1128.27 823.949C1128.17 823.904 1128.1 823.829 1128.05 823.732C1127.84 823.283 1128.28 822.849 1128.73 823.051C1128.83 823.096 1128.9 823.171 1128.95 823.268Z" fill="white" fill-opacity="0.1"/>
</svg>
